<svg xmlns="http://www.w3.org/2000/svg">
<defs>
<font id="UTMEremitage" horiz-adv-x="1548" >
  <font-face 
    font-family="UTM Eremitage"
    font-weight="400"
    font-stretch="normal"
    units-per-em="2048"
    panose-1="2 4 6 3 5 5 6 2 2 4"
    ascent="1638"
    descent="-410"
    x-height="1108"
    cap-height="1468"
    bbox="-165 -438 4942 2189"
    underline-thickness="109"
    underline-position="-250"
    unicode-range="U+0020-2026"
  />
<missing-glyph horiz-adv-x="5040" 
d="M3351 2045h10q37 -10 37 -52q0 -12 -32 -57h-28q0 24 28 54l2 10q-5 13 -10 15h-9q-8 0 -10 -19h-30q6 49 42 49zM2019 2016l29 -31q0 -16 -40 -30h-19l-59 12l-11 -12l-28 25q11 29 43 29h11l42 -11h2q10 0 30 18zM468 1980h142v-60h-94v-75h89v-59h-89v-129l-5 -5h-49
v323zM1155 1980h43l6 -5v-78h30v-52h-30v-188l-6 -5h-49v193h-25v52h25v78zM1621 1980h42l4 -5v-94h3q23 24 54 24h2q58 0 83 -71l2 -39v-143h-52v115q0 80 -42 80h-7q-43 0 -43 -86v-109h-51v323zM2200 1980h49l5 -5v-222q10 -51 45 -51q44 7 44 59v214l5 5h49v-216
q0 -85 -66 -112q-15 -8 -35 -8q-47 0 -82 55q-14 24 -14 57v224zM2435 1980h159v-60h-56v-268h-53v268h-55v55zM2621 1980h71q7 -4 83 -251h2l80 251h73v-328h-54v242h-2l-74 -242h-44q-4 0 -58 182l-19 60h-3v-242h-55v328zM3760 1980h52v-328h-45l-5 5v11l3 2l-3 14
q-29 -40 -78 -40q-67 0 -100 91l-5 39v3q0 94 92 125l23 3q35 0 63 -32h3v107zM2057 1928h36l4 -6v-49h-45v-221h-48v23q-23 -31 -59 -31q-89 14 -89 97v156h51v-104q0 -79 26 -86l18 -5h6q26 0 39 36l3 26v133h53v25zM3476 1928v-55h-31v-221h-47v25h-2q-15 -33 -57 -33
q-68 0 -86 78l-3 29v146h52v-120q0 -50 19 -68l21 -7h9q42 0 42 69v126h27q4 0 4 28l3 3h49zM758 1905q68 0 103 -77q9 -18 12 -54q0 -88 -90 -127l-32 -3q-63 0 -101 73q-12 22 -12 52v10q0 94 101 126h19zM1011 1905h3q74 0 83 -101v-152h-51v119q0 76 -42 76h-5
q-44 0 -44 -76v-119h-52v245h46v-21q30 29 62 29zM1466 1905h7q72 0 105 -89h-60q-16 31 -42 31h-17q-53 -14 -53 -61l-3 -15q12 -69 61 -69h9q22 0 47 27h40l2 3h3l2 -3l2 3l3 -3l2 3l2 -7q-33 -81 -110 -81q-76 0 -110 94l-4 36v3q0 85 77 120q15 8 37 8zM3141 1905h2

<glyph glyph-name=".notdef" horiz-adv-x="5040" 
d="M3351 2045h10q37 -10 37 -52q0 -12 -32 -57h-28q0 24 28 54l2 10q-5 13 -10 15h-9q-8 0 -10 -19h-30q6 49 42 49zM2019 2016l29 -31q0 -16 -40 -30h-19l-59 12l-11 -12l-28 25q11 29 43 29h11l42 -11h2q10 0 30 18zM468 1980h142v-60h-94v-75h89v-59h-89v-129l-5 -5h-49
v323zM1155 1980h43l6 -5v-78h30v-52h-30v-188l-6 -5h-49v193h-25v52h25v78zM1621 1980h42l4 -5v-94h3q23 24 54 24h2q58 0 83 -71l2 -39v-143h-52v115q0 80 -42 80h-7q-43 0 -43 -86v-109h-51v323zM2200 1980h49l5 -5v-222q10 -51 45 -51q44 7 44 59v214l5 5h49v-216
q0 -85 -66 -112q-15 -8 -35 -8q-47 0 -82 55q-14 24 -14 57v224zM2435 1980h159v-60h-56v-268h-53v268h-55v55zM2621 1980h71q7 -4 83 -251h2l80 251h73v-328h-54v242h-2l-74 -242h-44q-4 0 -58 182l-19 60h-3v-242h-55v328zM3760 1980h52v-328h-45l-5 5v11l3 2l-3 14
q-29 -40 -78 -40q-67 0 -100 91l-5 39v3q0 94 92 125l23 3q35 0 63 -32h3v107zM2057 1928h36l4 -6v-49h-45v-221h-48v23q-23 -31 -59 -31q-89 14 -89 97v156h51v-104q0 -79 26 -86l18 -5h6q26 0 39 36l3 26v133h53v25zM3476 1928v-55h-31v-221h-47v25h-2q-15 -33 -57 -33
q-68 0 -86 78l-3 29v146h52v-120q0 -50 19 -68l21 -7h9q42 0 42 69v126h27q4 0 4 28l3 3h49zM758 1905q68 0 103 -77q9 -18 12 -54q0 -88 -90 -127l-32 -3q-63 0 -101 73q-12 22 -12 52v10q0 94 101 126h19zM1011 1905h3q74 0 83 -101v-152h-51v119q0 76 -42 76h-5
q-44 0 -44 -76v-119h-52v245h46v-21q30 29 62 29zM1466 1905h7q72 0 105 -89h-60q-16 31 -42 31h-17q-53 -14 -53 -61l-3 -15q12 -69 61 -69h9q22 0 47 27h40l2 3h3l2 -3l2 3l3 -3l2 3l2 -7q-33 -81 -110 -81q-76 0 -110 94l-4 36v3q0 85 77 120q15 8 37 8zM3141 1905h2
q49 0 70 -60v-14h-52q0 16 -16 16h-4q-14 0 -19 -13v-13q0 -9 68 -35q30 -19 30 -59q0 -58 -61 -80l-23 -3q-76 12 -76 83h54q0 -20 27 -25h4q19 0 24 23q0 22 -68 44q-34 27 -34 59q0 66 74 77zM4203 1905q55 0 77 -63q7 -18 7 -65v-125h-52v112q0 83 -40 83h-11
q-33 0 -40 -54v-141h-52v5h-2l2 2v238h47v-21q25 29 64 29zM4432 1905h5q40 0 69 -40v18l-3 3l3 11h47v-208q0 -97 -85 -132l-33 -4h-7q-70 0 -104 80h59q24 -22 45 -23h13q22 0 43 22q15 13 22 52h-3q-32 -40 -73 -40q-57 0 -96 70q-10 18 -14 63q0 88 87 125zM3851 1897
h53v-136q6 -59 40 -59h7q46 0 46 93v102h51v-245h-47l-3 10h3l-3 3v5l3 2v3h-4q0 -23 -57 -31h-3q-59 0 -84 75l-2 85v93zM690 1771q10 -69 63 -69h7q59 14 59 65v15q-13 65 -59 65h-5q-58 0 -65 -76zM3630 1774q13 -72 61 -72h5q58 0 66 75q0 49 -51 70h-22q-37 0 -56 -57z
M4374 1774q8 -72 65 -72h5q59 12 59 72q0 61 -59 73h-14q-56 -16 -56 -62v-11zM3928 1620h52v-57h-52v57zM1054 1402q43 -11 43 -49v-4q0 -17 -32 -60h-28q0 25 31 57v7q0 12 -7 15h-12q-10 -4 -10 -19h-28v6q0 32 33 44zM3349 1339q92 0 138 -99h-60q-37 42 -80 42
q-55 0 -87 -68q-10 -22 -10 -47q0 -78 81 -110l18 -1q36 0 75 39h61q-44 -97 -138 -97q-93 0 -141 112q-10 31 -10 62q0 97 90 152q29 15 63 15zM3664 1339q57 0 103 -47q46 -51 46 -115v-20q0 -89 -91 -146q-33 -13 -63 -13q-89 0 -138 101q-13 33 -13 60v18q0 98 98 151
q29 11 58 11zM2261 1337h2l47 -11h3q11 0 26 11l18 -36q-18 -19 -35 -19h-3l-54 10l-20 -7l-20 36q18 16 36 16zM716 1334h19q118 0 129 -26q25 -26 25 -62q-10 -57 -30 -57v-6q47 -23 47 -66v-18q0 -63 -69 -88l-54 -5h-67v328zM2550 1334h53v-217q6 -61 45 -61q29 0 44 39
l3 30v203l4 6h45l5 -6v-171q0 -118 -40 -133q-24 -26 -64 -26q-55 0 -91 76l-4 54v206zM2805 1334h59q4 0 122 -237h4v237h50l4 -6v-322h-58q-29 48 -125 238h-3v-238h-53v328zM3101 1334h54v-328h-54v328zM3859 1334h8q155 0 174 -40q23 -11 47 -75l4 -36v-11l3 -2
q0 -94 -82 -149q-35 -15 -99 -15h-55v328zM4141 1334h153v-60h-103v-75h101v-57h-101v-74l4 -5h99v-57h-157v322zM3563 1175v-10q0 -76 79 -108l19 -1q68 0 96 86l3 20v15q0 61 -60 94q-12 8 -39 11q-66 0 -96 -83zM770 1274v-67h9q54 0 54 28l3 14q-11 25 -29 25h-37z
M3912 1274v-206l2 -3v-2q104 0 122 76l2 15v29q0 34 -32 68q-25 23 -78 23h-16zM1041 1259h5q38 0 71 -40v32h49v-245h-49v32q-36 -40 -80 -40q-75 0 -101 97l-5 36q0 89 85 125zM1314 1259h3q74 0 83 -102v-151h-51v128q0 67 -42 67h-10q-34 0 -39 -62v-133h-52v245h47v-21
q28 29 61 29zM1543 1259h5q45 0 71 -40v32h47v-219q0 -95 -104 -126h-16q-74 0 -108 82h59q26 -25 44 -25h14q52 0 64 77q-33 -42 -76 -42q-60 0 -101 81l-7 44v16q0 79 85 117zM1912 1259h2q43 0 61 -37h2q32 37 69 37h4q57 0 79 -55q8 -25 8 -45v-153h-52v138q0 44 -23 55
l-12 2h-15q-32 0 -36 -65v-130h-52v136q0 59 -43 59h-8q-32 0 -36 -57v-138h-54v245h50v-21h2q6 24 54 29zM2282 1259q47 0 75 -42v34h47v-245h-47v32q-36 -40 -78 -40q-74 0 -102 92l-6 41q0 90 85 125zM985 1117q0 -48 61 -61h4q45 0 62 46l3 15v22q-12 62 -57 62h-14
q-41 0 -59 -57v-27zM1487 1128q0 -48 43 -68l18 -4h5q47 0 63 57v23q-11 65 -58 65h-12q-50 0 -59 -73zM2225 1131v-14q15 -61 57 -61h14q58 12 58 64v11q0 45 -37 65l-18 5h-10q-64 -8 -64 -70zM770 1150v-82q0 -5 7 -5q77 0 77 45q0 34 -47 42h-37zM2966 753l24 -28
l-51 -55q-18 12 -27 26zM1524 727l85 -54q0 -15 -21 -42l-87 54q18 41 23 42zM2850 693h38l55 -60h-54l-21 26l-23 -26h-54q54 60 59 60zM3422 693h40l56 -60h-54l-24 26h-1q0 -5 -19 -26h-54zM622 685h52q8 -4 47 -137l34 -110q9 8 34 100l48 147h54v-2l-112 -326h-44z
M1159 685h51v-54h-51v54zM1354 685h46l6 -5v-323h-52v328zM2317 685h45l4 -5v-78h31v-52h-31v-193h-53v193h-26v52h26v78zM2425 685h52v-98h2q23 23 54 23h3q57 0 81 -71l3 -38v-144h-52v115q0 81 -39 81h-10q-42 0 -42 -87v-109h-52v328zM2664 685h52v-54h-52v54zM3028 685
h44l6 -5v-78h29v-52h-29v-193h-54v193h-27v52h27v78zM3234 685h52v-328h-52v328zM3957 685h52v-328h-52v328zM4316 685h51v-54h-51v54zM1555 610h5q83 0 110 -102l3 -23v-11q0 -83 -85 -120l-35 -5q-76 0 -111 97l-4 32q0 97 93 130zM1811 610h4q53 0 78 -60q7 -25 7 -81
v-112h-54v146q-7 50 -37 50h-10q-38 0 -42 -57v-139h-54v245h49v-21q26 29 59 29zM2046 610h4q45 0 63 -39h3v31h49v-206q0 -102 -89 -135l-28 -3h-5q-73 0 -106 81h52l37 -20l15 -3h14q50 0 61 72q-33 -39 -73 -39q-62 0 -98 76q-11 23 -12 60q0 85 86 123zM2866 610h2
q82 0 111 -104l2 -25l-2 -27h-172q15 -45 45 -45l14 -3q29 0 49 22h57v-3q-35 -76 -108 -76q-77 0 -111 97l-1 28v8q0 49 32 89q34 39 82 39zM3429 610h5q41 0 70 -39h2v31h47v-245h-47v31h-2q-35 -39 -77 -39q-71 0 -101 89l-5 36v14q0 86 84 120zM3711 610h7
q88 0 107 -128l-2 -1v-15q0 -65 -66 -106q-21 -11 -46 -11q-34 0 -64 32v-99l-5 -5h-49v325h49v-28q31 36 69 36zM4151 610q44 0 75 -39v31h49v-245h-49v31q-35 -39 -77 -39q-92 0 -108 132q0 84 73 121q15 8 37 8zM922 602h50v-136q3 -60 42 -60h5q44 0 44 87v109h52v-245
h-47v24h-5q0 -23 -56 -32h-3q-55 0 -82 68q-4 35 -4 99v81zM1159 602h51v-245h-51v245zM2664 602h52v-245h-52v245zM4316 602h51v-245h-51v245zM1492 488v-16q13 -66 59 -66h4q59 0 66 76q-13 71 -59 71h-11q-59 -16 -59 -65zM1987 472q15 -66 59 -66h11q48 0 59 75v1
q-13 71 -59 71h-14q-39 0 -56 -57v-24zM2805 506h122v2q-16 45 -59 45h-7q-35 0 -56 -47zM3373 474q13 -68 61 -68h5q52 0 65 63v12q-10 72 -57 72h-16q-56 -14 -56 -63zM3642 478q12 -72 61 -72h3q50 0 65 60v22q0 43 -49 65h-22q-47 0 -58 -72v-3zM4095 472q10 -66 66 -66
q43 0 61 48l2 15v16q0 54 -52 68h-18q-42 0 -59 -60v-21zM3416 321h51v-52h-51v52zM4137 321h51v-52h-51v52zM2733 133h4q35 0 43 -50v-2q0 -16 -24 -41l-10 -17h-28q0 25 28 56l3 2v2q-3 19 -9 19h-10q-8 0 -9 -19h-30q6 50 42 50zM1546 116l52 -60l-26 -19l-52 52zM352 79
h4q75 -48 85 -60l-20 -37q-88 49 -88 58zM3490 79l86 -58l-18 -39q-10 0 -91 55q15 36 23 42zM4578 76l19 -42l-91 -52l-20 39l92 58v-3zM1204 53h51v-19l5 -5h14v-36h-14l-5 -5v-279h-46v31q-34 -40 -81 -40q-72 0 -102 105l-3 26q0 102 101 131h14q33 0 66 -33v59l-6 5
h-43v36h49v24zM1480 45h40l56 -61h-53l-23 27l-23 -27h-53zM2641 45h33q12 0 63 -61h-54l-23 27q-19 -21 -19 -27h-58v4zM49 37h160v-60h-56v-268h-50l-4 5v245l2 3v2l-2 2l2 3l-2 2l2 3l-2 3h-54v54zM699 37h47v-73l2 -2l-2 -3v-3l2 -2l-2 -3v-3l2 -2v-2l-2 -3l2 -3h3
q17 24 51 24h3q53 0 77 -58q7 -17 7 -42v-153h-52v127q0 68 -40 68h-8q-43 0 -43 -86v-109h-52v322zM1297 37h47l5 -6v-49h-52v55zM1987 37h52v-198l70 115h62l-78 -118l90 -125v-2h-70q-10 22 -74 115v-115h-52v328zM2271 37v-99q24 24 53 24q57 0 80 -56q10 -19 10 -77
v-120h-54v133q0 62 -41 62h-11q-31 0 -37 -55v-140h-53v314l-1 3v3l1 2l-1 3l1 3h53zM2458 37h51v-55h-51v55zM3148 37h51v-108q27 33 68 33h3q75 0 105 -94l5 -37q0 -75 -64 -120q-30 -11 -49 -11q-41 0 -72 40v-31h-47v328zM4275 37h52v-99h2q23 24 54 24h3q60 0 82 -74
l2 -41v-138h-52v111q0 82 -32 82l-10 2h-12q-37 0 -37 -80v-115h-52v328zM329 -38h3v-58h-5q-42 0 -42 -57v-138h-53v245h47v-21q18 29 50 29zM564 -38q71 0 86 -87v-166h-51v136q-6 59 -41 59h-6q-45 0 -45 -84v-111h-52v245h50v-21q25 29 59 29zM1504 -38q72 0 105 -94
l5 -39q-2 -24 -7 -24h-169q17 -47 62 -47q24 0 48 21h57q-33 -79 -108 -79q-82 0 -113 105v37q0 81 89 117zM2657 -38h5q77 0 107 -97l3 -26v-21l-3 -13h-170q18 -47 53 -47h12q21 0 42 21h59q-34 -79 -105 -79q-84 0 -115 102l-2 29q0 93 91 128zM2915 -38h4q54 0 78 -60
q7 -25 7 -82v-111h-54v138q0 48 -35 57h-11q-38 0 -43 -57v-138h-54v245h50v-21q25 29 58 29zM3508 -38h6q40 0 70 -40h2v32h47v-245h-47v31h-2q-34 -40 -78 -40q-71 0 -101 90l-4 37v12q0 82 77 117q11 6 30 6zM3781 -38h4q62 0 82 -78l3 -84v-91h-54v138q0 48 -38 57h-9
q-38 0 -42 -52v-143h-54v245h49v-21q26 29 59 29zM4133 -38h1q74 0 104 -93l4 -40q0 -88 -84 -126l-25 -3q-41 0 -68 34v-106h-52v326h47v-29q30 37 73 37zM4714 -38h5q34 0 63 -37q27 37 69 37h6q56 0 79 -66l6 -51v-136h-52v122q0 73 -39 73h-7q-35 0 -41 -50v-140l-5 -5
h-48v140q0 42 -31 55h-17q-40 0 -40 -77v-118h-51v245h47v-21q22 29 56 29zM359 -46h49l5 -6v-234l-5 -5h-49v245zM1297 -46h52v-245h-52v245zM1649 -46h52v-136q4 -60 43 -60h4q44 0 44 81v115h52v-245h-47v24h-5q-12 -33 -59 -33q-52 0 -79 63q-5 12 -5 34v157zM2458 -46
h51v-245h-51v245zM4515 -46h51v-245h-51v245zM1077 -169q0 -53 51 -73h12q54 0 66 66v10q0 53 -54 70h-17q-38 0 -58 -57v-16zM1438 -143h122q-18 47 -53 47h-7q-43 0 -62 -44v-3zM2599 -143h122q-21 47 -54 47h-7q-46 0 -61 -47zM3196 -158v-11q10 -73 61 -73h5q64 8 64 71
v5q0 45 -38 65l-18 5h-14q-60 -14 -60 -62zM3452 -173q14 -69 62 -69h11q41 0 59 60v13q-8 73 -56 73h-17q-47 0 -59 -73v-4zM4062 -158v-22q0 -47 59 -62h9q50 0 61 76q-13 70 -58 70h-15q-56 -17 -56 -62z" />
    <glyph glyph-name=".null" horiz-adv-x="0" 
 />
    <glyph glyph-name="nonmarkingreturn" horiz-adv-x="571" 
 />
    <glyph glyph-name="space" unicode=" " horiz-adv-x="372" 
 />
    <glyph glyph-name="exclam" unicode="!" horiz-adv-x="495" 
d="M464 1454v-1020h-350v1020h350zM114 297h350v-307h-350v307z" />
    <glyph glyph-name="quotedbl" unicode="&#x22;" horiz-adv-x="550" 
d="M227 782h-49l-53 283q-11 49 -20 96t-9 82q0 51 27.5 89t78.5 38q54 0 78.5 -36t24.5 -87q0 -30 -9.5 -79.5t-17.5 -88.5zM499 782h-51l-51 283q-10 59 -18.5 101t-8.5 75q0 59 25 94t78 35q37 2 65.5 -23.5t34.5 -105.5q0 -33 -10 -84t-12 -78z" />
    <glyph glyph-name="numbersign" unicode="#" horiz-adv-x="1456" 
d="M728 1223h197l-129 -369h207l127 369h198l-131 -369h246l-61 -164h-244l-76 -217h246l-62 -166h-243l-129 -366h-197l129 366h-205l-131 -366h-200l131 366h-240l57 166h240l78 217h-240l60 164h241zM657 473h206l78 217h-205z" />
    <glyph glyph-name="dollar" unicode="$" horiz-adv-x="1423" 
d="M1427 1454l-168 -315h-379v-256h49q176 0 268 -31q95 -31 160 -152q66 -120 66 -256q0 -145 -74 -268q-72 -123 -172 -149q-98 -27 -277 -27h-759v299h526v279h-49q-154 0 -264 30q-56 15 -100 52.5t-74.5 90t-48 118t-17.5 139.5q0 147 66 262q32 57 76 93t97.5 56.5
t119 27.5t145.5 7h809zM474 1067q-10 -27 -10 -61q0 -76 56.5 -99.5t148.5 -23.5v247q-47 0 -80 -1t-55.5 -7t-36.5 -18t-23 -37zM882 305h31q78 0 121 28.5t43 100.5q-5 35 -14 62.5t-30.5 47t-57.5 28t-93 3.5v-270z" />
    <glyph glyph-name="percent" unicode="%" horiz-adv-x="2314" 
d="M454 1485q14 2 37.5 3t60.5 1q156 0 252 -34t143 -89t71 -150.5t24 -189.5q0 -92 -26 -176t-77 -137q-49 -54 -131 -79.5t-211 -25.5q-112 0 -199.5 18.5t-148.5 69.5q-63 54 -96 166q-33 111 -33 217q2 8 1 20.5t1 37t14.5 67.5t42.5 113q47 90 107 117q31 14 53.5 23
t39.5 14.5t34.5 7.5t40.5 6zM1533 1477h219l-852 -1497h-213zM1658 848q18 2 76.5 8t120.5 6q112 0 200 -19.5t144 -72.5q57 -53 86 -160q30 -104 30 -207q0 -57 -14 -135q-16 -88 -63 -149q-25 -33 -56.5 -59.5t-77 -45t-105.5 -28t-142 -9.5q-92 0 -166 13.5t-146 56.5
q-73 45 -112 152q-39 108 -39 213q0 94 31 209q34 116 88 155q57 41 87.5 52.5t57.5 19.5zM388 1124q-6 -10 -8 -29.5t-2 -39.5q0 -47 11.5 -88t35.5 -70q27 -27 74 -42t92 -15h25q6 2 22.5 6t44.5 8q58 8 80 76q23 71 23 108q2 47 -12.5 89t-42 72t-68.5 46.5t-90 14.5
q-15 0 -23 -3l-70 -10q-59 -10 -92 -123zM1656 403q0 -55 22.5 -99t53.5 -62q33 -17 61.5 -22t59.5 -5q96 0 149 53.5t53 128.5q4 70 -12 116t-47 71.5t-71 35t-79 7.5q-40 0 -96 -17q-49 -16 -71.5 -71.5t-22.5 -135.5z" />
    <glyph glyph-name="ampersand" unicode="&#x26;" horiz-adv-x="1771" 
d="M1167 1454l-172 -315h-234h-41q-39 0 -73.5 -3t-63.5 -8q-55 -8 -72 -47q-12 -37 -12 -57q-10 -43 45 -72.5t176 -25.5h41h223l-178 -324h-55h-47q-123 4 -180.5 -35t-51.5 -114q-4 -66 53.5 -105t174.5 -33h45h350v287h-164l187 324h673l-184 -324h-154v-612h-886
q-119 0 -226 30q-104 33 -166.5 133.5t-62.5 243.5q0 107 31 178q16 37 33.5 63t41 46.5t52 37.5t69.5 36q-86 35 -125 67q-41 35 -61.5 102.5t-20.5 131.5q0 67 17.5 134t73.5 138q55 74 162.5 98.5t261.5 24.5h520z" />
    <glyph glyph-name="quotesingle" unicode="'" horiz-adv-x="552" 
d="M92 1454h408v-418h-170z" />
    <glyph glyph-name="parenleft" unicode="(" horiz-adv-x="894" 
d="M880 1376q-256 -53 -342 -180q-84 -131 -84 -389v-162q0 -221 49 -332q53 -112 119 -159q35 -23 63.5 -39.5t55.5 -24.5q26 -8 60 -15t79 -12v-296h-57q-148 0 -252 26q-109 25 -222 129q-116 105 -174 262q-59 166 -59 320v368q0 252 76 443q76 192 217 268
q143 76 244 84q100 12 227 12v-303z" />
    <glyph glyph-name="parenright" unicode=")" horiz-adv-x="899" 
d="M524 1618q202 -107 278 -301q78 -199 78 -445v-368q0 -154 -59 -320q-58 -159 -179 -268q-116 -104 -233 -127q-119 -22 -293 -22v296q39 5 69.5 10t57.5 13q51 14 135 74q86 59 125 185t39 300v162q0 260 -86 389q-82 127 -340 180v303q137 0 231.5 -10t176.5 -51z" />
    <glyph glyph-name="asterisk" unicode="*" horiz-adv-x="884" 
d="M368 1458h240l-13 -235l203 86l74 -222l-219 -59l145 -168l-176 -151l-133 200l-119 -209l-203 144l160 182l-215 29l53 248l213 -80z" />
    <glyph glyph-name="plus" unicode="+" horiz-adv-x="1271" 
d="M557 1096h292v-408h410v-285h-410v-403h-292v403h-410v285h410v408z" />
    <glyph glyph-name="comma" unicode="," horiz-adv-x="583" 
d="M141 297h403l-235 -406h-168v406z" />
    <glyph glyph-name="hyphen" unicode="-" horiz-adv-x="696" 
d="M116 768h553v-252h-553v252z" />
    <glyph glyph-name="hyphen" unicode="&#x2010;" horiz-adv-x="696" 
d="M116 768h553v-252h-553v252z" />
    <glyph glyph-name="period" unicode="." horiz-adv-x="542" 
d="M135 299h354v-299h-354v299z" />
    <glyph glyph-name="slash" unicode="/" horiz-adv-x="677" 
d="M444 1468h203l-328 -1470h-207z" />
    <glyph glyph-name="zero" unicode="0" 
d="M837 1479q74 0 152 -9.5t151.5 -32t137 -61.5t110.5 -98q86 -107 124 -257.5t38 -305.5q0 -187 -48 -337.5t-134 -236.5q-80 -84 -180 -112q-95 -25 -181 -33t-165 -8q-168 0 -310.5 32.5t-240.5 118.5q-97 86 -148 258t-51 355v39.5t2 29.5l25 162q20 135 106 258
q55 80 127 127t152 71.5t165 32t168 7.5zM450 762q0 -129 31 -230q31 -104 124 -163.5t218 -59.5q92 0 178 40t131 118q45 74 52 139q8 64 10 81.5t2 31.5q0 110 -30 208.5t-103 159.5q-47 33 -119 51.5t-141 18.5q-68 0 -160 -31q-92 -30 -142.5 -128.5t-50.5 -235.5z" />
    <glyph glyph-name="one" unicode="1" horiz-adv-x="1558" 
d="M1036 1458v-1458h-350v1151h-289l174 307h465z" />
    <glyph glyph-name="two" unicode="2" horiz-adv-x="1558" 
d="M376 1458h525q186 0 290 -33q109 -30 177 -153q69 -119 69 -264q0 -134 -69 -252q-68 -115 -160 -150q-90 -31 -273 -31h-96q-92 0 -125 -8q-35 -6 -73 -47q-35 -39 -42.5 -74.5t-7.5 -95.5v-31v-12h834v-47v-260h-1192v356q0 78 4 138.5t12 103.5q15 86 99 172
q80 86 163 109q87 22 216 22h96h35q118 -10 165.5 29t51.5 98q6 57 -48.5 92t-168.5 29h-45h-621z" />
    <glyph glyph-name="three" unicode="3" horiz-adv-x="1558" 
d="M388 1458h598q158 0 238 -22q82 -23 133 -97q55 -75 72.5 -142t17.5 -128q-2 -51 -13 -99t-39 -90t-74 -79t-116 -64q113 -59 164.5 -112.5t63.5 -120.5q8 -33 11 -52.5t5 -25.5q2 -8 2 -39q0 -70 -22.5 -137.5t-79.5 -138.5q-29 -35 -60.5 -56.5t-73.5 -34t-93.5 -16.5
t-118.5 -4h-754v307h559h53q88 0 136 12q45 13 67.5 54t22.5 76q0 57 -55.5 99t-163.5 34h-39h-582v311h584h41q215 0 215 135q0 68 -48.5 95.5t-170.5 27.5h-35h-584h-45z" />
    <glyph glyph-name="four" unicode="4" horiz-adv-x="1558" 
d="M901 1458h534v-1458h-348v557l-168 -250h-735v295zM618 612h469v559z" />
    <glyph glyph-name="five" unicode="5" horiz-adv-x="1558" 
d="M227 1458h1227l-162 -307h-715v-240h365q88 0 155.5 -7t118.5 -24.5t88 -47t64 -76.5q53 -90 69 -154q17 -61 17 -137q0 -37 -3 -72t-12.5 -70.5t-25.5 -75.5t-45 -89q-55 -99 -146 -129q-92 -29 -270 -29h-729v307h575h25q145 -4 206.5 31t57.5 117q8 65 -53 101
t-172 32h-31h-604v870z" />
    <glyph glyph-name="six" unicode="6" horiz-adv-x="1558" 
d="M1494 1458l-163 -307h-504h-49q-52 0 -97 -12q-43 -9 -96 -62q-49 -53 -49 -176h47h377q92 0 164.5 -6t128 -24.5t95.5 -49t69 -80.5q28 -49 44.5 -87t25.5 -71.5t12.5 -64.5t3.5 -63q0 -136 -68 -254q-33 -60 -82 -99t-110.5 -61.5t-134 -31.5t-154.5 -9h-219
q-80 0 -152 8t-132 29.5t-108.5 58.5t-78.5 94q-62 117 -86.5 255.5t-24.5 291.5q0 162 26.5 303.5t86.5 241.5q61 102 172.5 139t251.5 37h65h739zM526 557q0 -88 17.5 -134t53.5 -75q19 -12 51.5 -20.5t70.5 -13.5t80 -6t83 -1q119 0 172 17q49 14 66 61q16 49 16 68
q4 30 -12.5 53.5t-47 39t-73.5 22.5t-94 5h-27h-356v-16z" />
    <glyph glyph-name="seven" unicode="7" horiz-adv-x="1558" 
d="M397 1458h1051v-293l-758 -1165h-430l784 1151h-825z" />
    <glyph glyph-name="eight" unicode="8" horiz-adv-x="1558" 
d="M1188 737q96 0 168 -43q36 -20 63 -54t44 -74t26.5 -83t9.5 -86q0 -116 -64 -217q-63 -98 -173.5 -139t-258.5 -41h-391q-139 0 -252 43q-115 43 -168 145q-51 101 -51 209q0 119 49 199t150 111q35 10 59.5 15t38.5 7q-78 14 -135.5 48t-94 79t-53 99.5t-12.5 109.5
q0 65 15.5 124.5t62.5 131.5q47 74 149.5 105.5t223.5 31.5h368q166 0 288 -27.5t169 -103.5q47 -74 61.5 -135.5t14.5 -118.5q2 -72 -20.5 -130t-62.5 -100t-97.5 -68.5t-126.5 -37.5zM512 1063q-13 -29 -13 -55q0 -56 48.5 -89.5t146.5 -27.5h74h86q28 0 54 -1t52 -1
q72 0 109 10q35 12 52 48t17 71q0 51 -26 80q-27 32 -112 42.5t-197 10.5q-50 -4 -95 -3t-82.5 -4t-67.5 -22.5t-46 -58.5zM504 475q-3 -4 -3 -22q-4 -50 17.5 -77.5t61.5 -43t97.5 -20.5t129.5 -5q57 0 115.5 4t93.5 11q63 10 91.5 44.5t28.5 84.5q0 81 -50 109t-171 28
h-55h-98q-144 0 -181 -17q-30 -14 -50.5 -39.5t-26.5 -56.5z" />
    <glyph glyph-name="nine" unicode="9" horiz-adv-x="1558" 
d="M147 307h670h41q75 0 130.5 12.5t80.5 47.5q24 36 34.5 61t12.5 45l4 94h-461q-168 0 -266 31q-96 31 -168 152q-68 122 -68 254q0 135 64 247q65 115 188 161t275 46h215q94 0 173 -8t142 -29.5t109.5 -58.5t76.5 -96q62 -117 85.5 -254.5t23.5 -290.5
q0 -168 -26.5 -306.5t-96.5 -248.5q-68 -113 -178 -139q-107 -27 -307 -27h-582zM1099 1063q-34 51 -120.5 69.5t-190.5 18.5q-31 0 -57.5 -1t-46.5 -1q-41 4 -71 -6t-50.5 -29.5t-30.5 -45.5t-12 -52q-6 -53 54 -92t177 -33h29h354q0 119 -35 172z" />
    <glyph glyph-name="colon" unicode=":" horiz-adv-x="567" 
d="M141 297h354v-297h-354v297zM141 895h354v-297h-354v297z" />
    <glyph glyph-name="semicolon" unicode=";" horiz-adv-x="581" 
d="M151 297h403l-235 -406h-168v406zM151 895h354v-297h-354v297z" />
    <glyph glyph-name="less" unicode="&#x3c;" horiz-adv-x="956" 
d="M122 655l829 308v-218l-530 -192l530 -186v-222l-829 306v204z" />
    <glyph glyph-name="equal" unicode="=" horiz-adv-x="1452" 
d="M1453 926v-287h-1327v287h1327zM1453 451v-283h-1327v283h1327z" />
    <glyph glyph-name="greater" unicode="&#x3e;" horiz-adv-x="956" 
d="M953 451l-827 -306v222l530 186l-530 192v218l827 -308v-204z" />
    <glyph glyph-name="question" unicode="?" horiz-adv-x="1355" 
d="M278 1468h549q195 0 293 -28q94 -29 160 -154q65 -127 65 -274q0 -142 -65 -256q-66 -113 -170 -146q-101 -32 -287 -32h-125q-37 0 -60.5 -3.5t-39 -7.5t-25.5 -12l-20 -16q-19 -17 -31 -46.5t-19 -52.5h-342q-4 15 -4 29v35q0 63 20.5 123.5t84.5 140.5
q65 80 154 106.5t218 26.5h103q94 0 153 12q62 13 82.5 50.5t20.5 74.5q8 60 -45 91.5t-176 27.5h-45h-625zM151 305h354v-305h-354v305z" />
    <glyph glyph-name="at" unicode="@" horiz-adv-x="1652" 
d="M1046 301q-55 -94 -125.5 -134t-158.5 -40q-49 0 -98.5 19.5t-90.5 57.5t-66.5 94t-25.5 130q0 64 16.5 127t57.5 145q41 78 139 158q100 78 201 78q61 0 121.5 -16.5t97.5 -65.5l31 -55l26 106h240l-113 -399q-16 -53 -30.5 -110.5t-14.5 -80.5q0 -30 19.5 -48.5
t56.5 -18.5q2 0 16.5 1t35 8t44 21.5t45.5 43.5q47 55 88 153t41 221q0 76 -20.5 145.5t-87.5 162.5q-68 92 -230 143q-159 51 -309 51q-170 0 -319 -90q-144 -88 -224 -229q-36 -68 -60 -124.5t-38 -105.5t-19 -95t-5 -91q0 -92 18 -172q23 -80 82 -191q59 -110 201 -192
q137 -82 290 -82q86 0 165 8t155 28.5t151.5 52.5t155.5 79l43 -76q-153 -98 -317 -150.5t-330 -52.5q-55 0 -105.5 5.5t-102.5 18.5t-108.5 34.5t-123.5 56.5q-136 66 -244 225q-107 158 -125 357q0 209 76 393q78 190 229 299q154 113 298.5 151.5t295.5 38.5
q199 0 346.5 -64.5t239.5 -187.5q90 -120 106 -215q8 -47 11.5 -79.5t3.5 -53.5q0 -135 -50 -266q-49 -133 -122 -195q-74 -59 -139.5 -82.5t-129.5 -23.5q-53 0 -90 14q-100 43 -121 160zM737 362q0 -43 9.5 -64.5t35.5 -37.5q21 -16 49 -16q31 0 80 24q51 27 107 172
q55 144 61 195t6 70q0 34 -11 56.5t-28.5 35t-36 17.5t-32.5 5q-25 0 -74 -20q-51 -19 -109 -187q-57 -166 -57 -250z" />
    <glyph glyph-name="A" unicode="A" horiz-adv-x="1550" 
d="M1079 1468l533 -1468h-369l-98 266h-338l-172 291l-211 -557h-379l543 1468h491zM645 584h393l-196 553z" />
    <glyph glyph-name="B" unicode="B" horiz-adv-x="1464" 
d="M1005 1468q69 0 124.5 -4t98.5 -16t76 -33.5t61 -56.5q58 -68 78 -137.5t20 -141.5q0 -22 -4 -52t-12 -69q-16 -75 -72.5 -135.5t-156.5 -93.5q104 -31 177 -123t77 -244q0 -114 -64 -215q-65 -98 -151 -122q-86 -25 -232 -25h-905v1468h885zM470 899h357h47
q123 0 181 31t58 96q4 59 -49 97t-180 34h-37h-377v-258zM470 311h373h47q90 0 135 11q43 10 65.5 48t22.5 72q4 64 -57.5 102t-208.5 31h-47h-168l-162 275v-539z" />
    <glyph glyph-name="C" unicode="C" horiz-adv-x="1292" 
d="M1335 1468l-174 -319h-236h-65q-131 0 -215 -27.5t-127 -101.5t-56.5 -141.5t-13.5 -139.5q0 -41 3 -74.5t12.5 -68.5t24 -73t38.5 -83q49 -88 119 -112q74 -23 239 -23h400v-305h-557q-101 0 -178.5 11.5t-137 36t-104.5 66.5t-82 103q-72 123 -100.5 251t-28.5 263
q0 137 25.5 257t99.5 247q76 129 215 181t326 52h573z" />
    <glyph glyph-name="D" unicode="D" horiz-adv-x="1484" 
d="M780 1468q108 0 198 -9t162 -32.5t127 -66.5t92 -111q78 -135 107.5 -260t29.5 -262q0 -133 -25.5 -251t-99.5 -249q-73 -131 -208.5 -179t-346.5 -48h-702v1468h666zM464 311h195h67q129 0 209 29t121 102q41 74 55.5 144.5t14.5 148.5q0 168 -58 258q-28 47 -61 77
t-73 47.5t-91 23.5t-115 6h-59h-205v-836z" />
    <glyph glyph-name="E" unicode="E" horiz-adv-x="1189" 
d="M114 1468h1102l-158 -288h-594v-328h717v-287h-717v-276h717v-289h-1067v1468z" />
    <glyph glyph-name="F" unicode="F" horiz-adv-x="1056" 
d="M122 1468h981l-152 -288h-479v-328h592v-287h-592v-565h-350v1468z" />
    <glyph glyph-name="G" unicode="G" horiz-adv-x="1425" 
d="M1464 1468l-172 -317h-358q-80 0 -143.5 -5t-112 -18.5t-83 -40t-59.5 -69.5q-45 -84 -59.5 -151.5t-14.5 -145.5q0 -160 60 -256q31 -49 66.5 -78t81.5 -45t102.5 -21.5t128.5 -5.5h168v263h-371v313h723v-891h-643q-195 0 -334 46t-215 173t-102.5 251t-26.5 267
q0 137 26.5 260t98.5 252q70 131 219 174q148 45 346 45h674z" />
    <glyph glyph-name="H" unicode="H" horiz-adv-x="1343" 
d="M122 1468h350v-567h518v567h349v-1468h-349v852l-172 -268h-346v-584h-350v1468z" />
    <glyph glyph-name="I" unicode="I" horiz-adv-x="505" 
d="M468 1468v-1468h-352v1468h352z" />
    <glyph glyph-name="J" unicode="J" horiz-adv-x="858" 
d="M831 1468v-874q0 -143 -32 -256t-124 -205q-92 -88 -210 -116.5t-253 -28.5l-174 313h63h60q88 0 142 13.5t102 60.5q49 47 63 109.5t14 142.5v41v800h349z" />
    <glyph glyph-name="K" unicode="K" horiz-adv-x="1392" 
d="M468 1468v-696l516 696h430l-524 -733l547 -735h-444l-525 698v-698h-352v1468h352z" />
    <glyph glyph-name="L" unicode="L" horiz-adv-x="1085" 
d="M470 1468v-1179h639l-160 -289h-829v1468h350z" />
    <glyph glyph-name="M" unicode="M" horiz-adv-x="1804" 
d="M131 1468h565l271 -1179l274 1179h569v-1468h-321v1190l-287 -1190h-483l-269 1223v-1223h-319v1468z" />
    <glyph glyph-name="N" unicode="N" horiz-adv-x="1421" 
d="M644 1468l445 -1220v1220h323v-1468h-555l-417 1188v-1188h-326v1468h530z" />
    <glyph glyph-name="O" unicode="O" 
d="M837 1479q74 0 152 -9.5t151.5 -32t137 -61.5t110.5 -98q86 -107 124 -257.5t38 -305.5q0 -187 -48 -337.5t-134 -236.5q-80 -84 -180 -112q-95 -25 -181 -33t-165 -8q-168 0 -310.5 32.5t-240.5 118.5q-97 86 -148 258t-51 355v39.5t2 29.5l25 162q20 135 106 258
q55 80 127 127t152 71.5t165 32t168 7.5zM450 762q0 -129 31 -230q31 -104 124 -163.5t218 -59.5q92 0 178 40t131 118q45 74 52 139q8 64 10 81.5t2 31.5q0 110 -30 208.5t-103 159.5q-47 33 -119 51.5t-141 18.5q-68 0 -160 -31q-92 -30 -142.5 -128.5t-50.5 -235.5z" />
    <glyph glyph-name="P" unicode="P" horiz-adv-x="1411" 
d="M470 772v-772h-350v1468h752h63q135 0 239.5 -35.5t155.5 -121.5q54 -86 70 -159t16 -165q0 -84 -12 -147q-12 -64 -67 -162q-54 -98 -168.5 -135t-305.5 -37h-176zM470 817h250h59q132 0 181 21q51 20 69.5 57t18.5 98q0 54 -17 90q-20 33 -74.5 50.5t-170.5 17.5h-52
h-264v-334z" />
    <glyph glyph-name="Q" unicode="Q" horiz-adv-x="1527" 
d="M1585 289l-162 -289h-678q-98 0 -179 9t-145.5 31.5t-112.5 62.5t-85 102q-72 125 -100.5 264t-28.5 293q0 65 4 122.5t15.5 113t32 111.5t50.5 118q39 76 111 125t158 76.5t178 38t172 8.5q84 -2 167 -6.5t157.5 -21.5t138 -53t108.5 -102q88 -123 125 -265t37 -296
q0 -180 -27 -248q-26 -71 -58 -123.5t-50 -70.5h172zM504 1004q-29 -43 -42.5 -116t-13.5 -159q-6 -133 29 -217t88 -131t116.5 -64.5t117.5 -15.5q69 0 133.5 18.5t128.5 69.5q67 55 94 160q31 110 31 209q0 96 -37 192q-33 94 -101 140q-63 45 -121.5 57t-125.5 12
q-74 0 -154 -26q-78 -27 -143 -129z" />
    <glyph glyph-name="R" unicode="R" horiz-adv-x="1421" 
d="M126 1468h788q76 0 136.5 -5t108.5 -18t86 -39t71 -69q67 -86 88.5 -177t21.5 -179q0 -86 -17 -164t-64 -135q-45 -57 -113 -88t-108 -40t-83 -9l363 -545h-408l-518 797v-797h-352v1468zM478 838h293h41q137 -9 193.5 34t60.5 142q6 86 -56.5 128t-189.5 38h-41h-301
v-342z" />
    <glyph glyph-name="S" unicode="S" horiz-adv-x="1421" 
d="M1433 1468l-180 -288h-533h-55q-57 4 -95 -5.5t-61.5 -28t-32.5 -44t-12 -55.5q0 -33 23 -74q23 -37 71 -45t130 -8h235q166 0 262 -46q50 -22 92 -62t72.5 -93t48 -118.5t17.5 -137.5q0 -162 -70 -281q-65 -116 -174 -151q-108 -31 -283 -31h-778v289h662h37
q63 -4 109 6t76 30.5t43 47t11 57.5q-2 55 -45 95t-125 32h-55h-238q-149 0 -247 45q-52 25 -95 67t-74.5 97t-49 121.5t-17.5 140.5q0 141 61 256q31 55 78 91t106.5 56.5t128 28.5t142.5 8h57h758z" />
    <glyph glyph-name="T" unicode="T" horiz-adv-x="1376" 
d="M90 1468h1348l-168 -288h-357v-1180h-348v1180h-475v288z" />
    <glyph glyph-name="U" unicode="U" horiz-adv-x="1427" 
d="M124 1468h350v-772v-67q0 -117 24.5 -187.5t80.5 -103.5q57 -31 98 -39t84 -8q102 0 178 45q78 47 100.5 133t22.5 225v774h350v-841q0 -256 -65 -377q-66 -119 -158 -172q-94 -53 -199.5 -71.5t-234.5 -18.5q-66 0 -122 4t-109.5 14t-106.5 30.5t-109 53.5
q-112 68 -149 201q-35 135 -35 364v813z" />
    <glyph glyph-name="V" unicode="V" 
d="M32 1468h371l413 -1151l422 1151h363l-539 -1468h-506z" />
    <glyph glyph-name="W" unicode="W" horiz-adv-x="2000" 
d="M45 1468h352l205 -1243l211 1243h512l215 -1224l211 1224h330l-279 -1468h-510l-229 1233l-213 -1233h-533z" />
    <glyph glyph-name="X" unicode="X" horiz-adv-x="1359" 
d="M94 1468h375l251 -415l254 415h396l-420 -712l444 -756h-403l-262 444l-279 -444h-387l438 752z" />
    <glyph glyph-name="Y" unicode="Y" horiz-adv-x="1413" 
d="M40 1468h401l316 -462l289 462h411l-524 -815v-653h-350v647z" />
    <glyph glyph-name="Z" unicode="Z" horiz-adv-x="1376" 
d="M265 1468h1108v-286l-807 -893h807v-289h-1267v307l819 873h-844z" />
    <glyph glyph-name="bracketleft" unicode="[" horiz-adv-x="751" 
d="M131 1468h598v-272h-264v-1319h264v-276h-598v1867z" />
    <glyph glyph-name="backslash" unicode="\" horiz-adv-x="677" 
d="M444 -2l-332 1470h207l328 -1470h-203z" />
    <glyph glyph-name="bracketright" unicode="]" horiz-adv-x="755" 
d="M716 -399h-600v276h266v1319h-266v272h600v-1867z" />
    <glyph glyph-name="asciicircum" unicode="^" horiz-adv-x="868" 
d="M317 1468h297l217 -297h-248l-118 160l-125 -160h-246z" />
    <glyph glyph-name="underscore" unicode="_" horiz-adv-x="933" 
d="M992 -252h-1012v119h1012v-119z" />
    <glyph glyph-name="grave" unicode="`" horiz-adv-x="684" 
d="M124 1468h356l193 -288h-232z" />
    <glyph glyph-name="a" unicode="a" horiz-adv-x="1165" 
d="M278 1108h415q117 0 203 -14.5t150 -77.5q63 -62 80.5 -160t17.5 -233v-623h-348v217l-152 -217h-69h-66q-141 0 -236.5 27.5t-134.5 95.5q-36 70 -47.5 124t-11.5 103q0 127 47 215q49 88 120 114t183 26h62h305v45q-8 22 -15.5 36.5t-22.5 22.5t-44 11t-78 3h-51h-449z
M552 449q-41 0 -64.5 -4.5t-46.5 -41.5q-10 -16 -10 -41q0 -12 4 -26t15.5 -27.5t33 -21.5t58.5 -8h254v170h-244z" />
    <glyph glyph-name="b" unicode="b" horiz-adv-x="1218" 
d="M114 1495h350v-387h180q99 0 173.5 -6t131 -24.5t96.5 -51.5t68 -84q58 -100 77.5 -190t19.5 -195q0 -113 -19.5 -205t-68.5 -180q-25 -43 -60 -76t-87 -54.5t-122.5 -31.5t-169.5 -10h-65l-154 229v-229h-350v1495zM464 797v-518h80h31q78 0 137 13t84 50q27 37 37 88
t10 105q-2 71 -12 119t-35 79t-66 45.5t-104 18.5h-162z" />
    <glyph glyph-name="c" unicode="c" horiz-adv-x="1095" 
d="M1105 1108l-164 -287h-143h-64q-100 0 -152 -15t-81 -61q-29 -45 -38 -94t-9 -100q0 -125 33 -178q32 -54 86 -76q51 -18 225 -18h248l-154 -279h-274h-56q-135 0 -232 31.5t-151 122.5q-53 92 -75.5 192t-22.5 211q0 105 17.5 194t74.5 187q60 98 184.5 134t311.5 36
h436z" />
    <glyph glyph-name="d" unicode="d" horiz-adv-x="1208" 
d="M1171 0h-349v229l-153 -229h-62h-51q-127 0 -229.5 36t-155.5 126q-51 92 -70.5 191.5t-19.5 209.5q0 103 15.5 190t74.5 189q62 102 168 133q104 33 305 33h178v387h349v-1495zM659 797q-80 0 -127 -33q-25 -16 -41.5 -34.5t-26.5 -45.5t-15.5 -63.5t-5.5 -88.5
q3 -59 10 -105t31.5 -78t76.5 -50t147 -20h37h77v518h-163z" />
    <glyph glyph-name="e" unicode="e" horiz-adv-x="1146" 
d="M1138 434h-701q43 -108 105 -133q63 -22 203 -22h380l-153 -279h-338h-70q-178 0 -260 45q-84 47 -131 121q-49 78 -70.5 182.5t-21.5 214.5q0 49 2 89t10 78t21.5 77t38.5 86q47 92 168 158q118 63 243 63q11 2 29 2h29q61 0 123.5 -9t119 -30.5t103.5 -54.5t80 -78
q65 -92 80.5 -210t15.5 -283zM710 834q-13 8 -38.5 12t-49.5 4q-82 8 -134.5 -44t-58.5 -136h369q-10 75 -26.5 108t-61.5 56z" />
    <glyph glyph-name="f" unicode="f" horiz-adv-x="706" 
d="M850 1497l-135 -256h-50.5t-52.5 -16q-24 -15 -31.5 -37.5t-7.5 -79.5h189v-287h-187v-821h-372v821h-154v287h154q0 92 21.5 172t76.5 131q55 53 133 69.5t164 16.5h37h215z" />
    <glyph glyph-name="g" unicode="g" horiz-adv-x="1228" 
d="M1207 1108v-1042q0 -123 -21.5 -221.5t-94.5 -170.5q-74 -71 -154 -86q-41 -8 -94 -12t-123 -4h-344l-160 276h320h79q31 0 55.5 3.5t45.5 7.5q43 10 74 41q36 30 36 149v103v92l-157 -242h-58q-153 0 -264.5 34t-167.5 120q-55 88 -75.5 187t-20.5 218q0 105 15.5 191
t70.5 180q55 98 169 137t273 39h596zM591 799q-70 -25 -94.5 -79t-24.5 -163q-4 -63 8.5 -116.5t45 -90.5t89 -56.5t140.5 -14.5h67l4 534h-67t-66.5 -1t-58.5 -4t-43 -9z" />
    <glyph glyph-name="h" unicode="h" horiz-adv-x="1210" 
d="M472 1495v-604l170 217h135q72 0 123 -5t89 -14.5t64.5 -25.5t49.5 -37q43 -37 66 -92q20 -47 20 -166v-74v-694h-350v557v66q0 112 -42 157t-163 41h-88h-74v-821h-350v1495h350z" />
    <glyph glyph-name="i" unicode="i" horiz-adv-x="514" 
d="M116 1497h352v-289h-352v289zM116 1108h352v-1108h-352v1108z" />
    <glyph glyph-name="j" unicode="j" horiz-adv-x="520" 
d="M124 1108h350v-1073q0 -135 -25.5 -232.5t-91.5 -148.5q-65 -53 -140 -72.5t-181 -19.5h-54l-147 272q76 0 137.5 7t91.5 38q33 31 46.5 73t13.5 128v1028zM124 1497h350v-289h-350v289z" />
    <glyph glyph-name="k" unicode="k" horiz-adv-x="1185" 
d="M120 1495h350v-866l322 479h356l-301 -471l393 -637h-420l-350 567v-567h-350v1495z" />
    <glyph glyph-name="l" unicode="l" horiz-adv-x="522" 
d="M470 1495v-1495h-350v1495h350z" />
    <glyph glyph-name="m" unicode="m" horiz-adv-x="1710" 
d="M739 0v557v51q0 51 -9.5 92t-37.5 64q-27 24 -88.5 31.5t-139.5 7.5v-803h-350v1108h350v-236l162 236h49q213 0 281 -33q73 -33 137 -217l156 250h41q79 0 162 -6t147 -43q63 -37 88.5 -125t25.5 -217v-60v-657h-350v557v51q0 60 -7 95.5t-38 60.5q-28 27 -92 31
q-31 2 -58.5 3t-54.5 1h-24v-799h-350z" />
    <glyph glyph-name="n" unicode="n" horiz-adv-x="1181" 
d="M114 1108h350v-234l148 234h133h45q98 0 172 -15.5t125 -68.5q51 -51 64.5 -117.5t13.5 -175.5v-74v-657h-349v557v37q-4 82 -14 125t-45 63.5t-103.5 22.5t-189.5 2v-807h-350v1108z" />
    <glyph glyph-name="o" unicode="o" horiz-adv-x="1269" 
d="M651 1108q64 0 135.5 -4t138 -18.5t125 -44t99.5 -80.5q63 -82 86.5 -183.5t23.5 -220.5q0 -174 -38.5 -289.5t-98.5 -167.5q-59 -51 -171.5 -81.5t-272.5 -30.5q-148 0 -262.5 26.5t-188.5 91.5q-69 68 -104 201q-33 129 -33 275q0 36 2 62t4 67q21 127 74 211
q39 59 97.5 96t124 56.5t133 26.5t126.5 7zM465 657q-10 -51 -10 -122q0 -66 10 -123.5t33.5 -99.5t62.5 -64.5t94 -18.5q51 0 101 19q61 26 84.5 70t31.5 94q6 24 9.5 39.5t4.5 28t2 24.5t1 31q0 92 -19.5 159.5t-56.5 96.5q-35 30 -72 39.5t-73 9.5q-86 0 -142.5 -47.5
t-60.5 -135.5z" />
    <glyph glyph-name="p" unicode="p" horiz-adv-x="1216" 
d="M120 1108h492q202 0 326 -30.5t179 -129.5q58 -98 74 -189t16 -202t-16 -201t-70 -188q-53 -98 -160.5 -133t-285.5 -35h-59l-146 236v-664h-350v1536zM470 279h117q78 -7 130 12.5t83 57.5t42 88t7 104q0 123 -39 180q-18 31 -40.5 48t-53.5 26.5t-73 11.5t-99 2h-74
v-530z" />
    <glyph glyph-name="q" unicode="q" horiz-adv-x="1189" 
d="M1160 -428h-348v664l-143 -236h-62q-229 0 -319 47q-90 49 -135 131q-43 82 -60.5 177.5t-17.5 201.5q0 111 15.5 202t72.5 189q59 96 185 128t325 32h487v-1536zM812 809h-78q-110 0 -167.5 -14.5t-85.5 -57.5q-29 -41 -39.5 -93t-10.5 -112q0 -86 21.5 -138t54.5 -77
q33 -20 72 -30q39 -8 107.5 -8h125.5v530z" />
    <glyph glyph-name="r" unicode="r" horiz-adv-x="864" 
d="M454 1108v-217l141 217h314l-162 -287h-43h-62.5t-60.5 -2t-52.5 -9t-35.5 -19q-25 -25 -32 -63t-7 -124v-604h-348v1108h348z" />
    <glyph glyph-name="s" unicode="s" horiz-adv-x="1144" 
d="M1146 1108l-162 -287h-391h-112q-60 -8 -60 -59q0 -25 12 -37q17 -10 33 -12q10 -2 40 -2h81h98q131 2 215 -20.5t133.5 -65.5t71 -106.5t25.5 -145.5q0 -58 -13.5 -112t-58.5 -128t-144.5 -103.5t-234.5 -29.5h-57h-508v279h436h84q66 0 101.5 9t52.5 38q8 14 8 32
q-4 17 -10 31t-21.5 24.5t-44 14.5t-76.5 2h-30h-54h-51q-125 0 -207 27q-86 28 -132 111t-46 200q0 55 11.5 104.5t50.5 114.5q39 68 125 94.5t204 26.5h62h569z" />
    <glyph glyph-name="t" unicode="t" horiz-adv-x="675" 
d="M482 1475v-367h182v-287h-180v-264v-137q10 -90 45 -111q39 -22 78 -27.5t90 -5.5l-156 -284q-111 0 -191.5 16.5t-127.5 63.5q-48 49 -68 110q-20 60 -20 187v53v399h-150z" />
    <glyph glyph-name="u" unicode="u" horiz-adv-x="1181" 
d="M122 1108h350v-565v-58q0 -82 12 -125q15 -43 52 -63q39 -18 266 -18v829h348v-1108h-348v199l-133 -199h-76q-162 0 -251 15.5t-140 62.5t-65.5 116.5t-14.5 161.5v52v700z" />
    <glyph glyph-name="v" unicode="v" horiz-adv-x="1208" 
d="M45 1108h373l231 -676l230 676h370l-407 -1108h-387z" />
    <glyph glyph-name="w" unicode="w" horiz-adv-x="1632" 
d="M53 1108h336l135 -739l156 739h377l145 -739l143 739h336l-278 -1108h-392l-147 727l-156 -727h-393z" />
    <glyph glyph-name="x" unicode="x" horiz-adv-x="1144" 
d="M79 1108h385l143 -268l148 268h385l-322 -530l369 -578h-402l-182 295l-162 -295h-401l348 565z" />
    <glyph glyph-name="y" unicode="y" horiz-adv-x="1171" 
d="M45 1108h385l196 -664l197 664h383l-440 -1169q-56 -136 -123.5 -225t-132.5 -105q-70 -21 -115 -23q-25 -2 -61.5 -3t-83.5 -1h-74l-166 287h123h59q60 0 103 6t71.5 23.5t43 49.5t14.5 83z" />
    <glyph glyph-name="z" unicode="z" horiz-adv-x="1028" 
d="M264 1108h739v-299l-471 -530h465v-279h-887v295l474 526h-494z" />
    <glyph glyph-name="braceleft" unicode="{" horiz-adv-x="921" 
d="M625 193v-48q0 -92 24.5 -145t89.5 -86q33 -18 58.5 -28.5t46 -16.5t39 -8t41.5 -2v-95q-129 0 -248 39q-119 37 -178 97q-56 57 -71 116.5t-15 149.5v43v117q0 45 -3.5 82.5t-13.5 70.5t-30.5 60.5t-55.5 52.5q-20 18 -39.5 29.5t-44 18.5t-57.5 14.5t-82 15.5v102
q47 8 109.5 21.5t113.5 56.5q68 49 85.5 112.5t17.5 151.5v117q0 61 3 107t7 75q12 62 78 127q65 66 202 100q132 33 222 33v-92q-50 0 -86.5 -11t-71.5 -32q-88 -45 -114.5 -101.5t-26.5 -136.5v-53v-100q0 -227 -88 -307q-93 -80 -328 -119q237 -43 328 -121
q88 -76 88 -305v-102z" />
    <glyph glyph-name="bar" unicode="|" horiz-adv-x="362" 
d="M301 -129h-154v1802h154v-1802z" />
    <glyph glyph-name="braceright" unicode="}" horiz-adv-x="921" 
d="M407 295q0 229 88 305q90 78 328 121q-238 39 -328 117q-88 75 -88 309v100v53q0 43 -5 77t-19.5 62.5t-43 52.5t-73.5 46q-31 18 -75 30.5t-85 12.5v92q90 0 221 -33q139 -34 203 -100q65 -67 76 -125q12 -59 12 -184v-117q0 -92 17.5 -152.5t72.5 -105.5q60 -45 96 -55
q21 -4 55.5 -11.5t86.5 -17.5v-102q-23 -4 -46.5 -8.5t-48.5 -8.5q-71 -18 -131 -61q-65 -49 -83.5 -113.5t-18.5 -152.5v-117v-45q0 -98 -14 -150q-13 -55 -76 -118q-66 -66 -199 -99q-129 -33 -223 -33v95q41 0 80 11t104 42q68 31 92.5 89t24.5 144v48v102z" />
    <glyph glyph-name="asciitilde" unicode="~" horiz-adv-x="872" 
d="M853 1442q-12 -78 -43 -142q-16 -30 -38.5 -53.5t-49 -38t-52.5 -21.5t-44 -7q-29 0 -115 28q-80 31 -119.5 41.5t-52.5 10.5q-32 0 -51.5 -18.5t-38.5 -72.5h-137q10 80 42 143.5t95 104.5q51 27 101 27q47 0 80.5 -11.5t82.5 -31.5l33 -15q27 -12 47.5 -19t42.5 -7
q21 0 36 10t24.5 23.5t14.5 27t9 21.5h133z" />
    <glyph glyph-name="dieresis" unicode="&#xa8;" horiz-adv-x="1024" 
 />
    <glyph glyph-name="copyright" unicode="&#xa9;" horiz-adv-x="1683" 
 />
    <glyph glyph-name="registered" unicode="&#xae;" horiz-adv-x="1683" 
 />
    <glyph glyph-name="acute" unicode="&#xb4;" horiz-adv-x="1024" 
 />
    <glyph glyph-name="paragraph" unicode="&#xb6;" horiz-adv-x="1024" 
d="M929 1435v-70h-127v-1365h-82v1365h-166v-1365h-84v738q-174 8 -275.5 102.5t-101.5 245.5q0 157 107.5 253t285.5 96h443z" />
    <glyph glyph-name="onequarter" unicode="&#xbc;" horiz-adv-x="1950" 
 />
    <glyph glyph-name="onehalf" unicode="&#xbd;" horiz-adv-x="1950" 
 />
    <glyph glyph-name="threequarters" unicode="&#xbe;" horiz-adv-x="1950" 
 />
    <glyph glyph-name="Agrave" unicode="&#xc0;" horiz-adv-x="1550" 
d="M1079 1468l533 -1468h-369l-98 266h-338l-172 291l-211 -557h-379l543 1468h491zM645 584h393l-196 553zM606 1802h221l113 -227h-141l-193 221v6z" />
    <glyph glyph-name="Aacute" unicode="&#xc1;" horiz-adv-x="1550" 
d="M1079 1468l533 -1468h-369l-98 266h-338l-172 291l-211 -557h-379l543 1468h491zM645 584h393l-196 553zM1036 1796l-193 -221h-141l113 227h221v-6z" />
    <glyph glyph-name="Acircumflex" unicode="&#xc2;" horiz-adv-x="1550" 
d="M1079 1468l533 -1468h-369l-98 266h-338l-172 291l-211 -557h-379l543 1468h491zM645 584h393l-196 553zM715 1782h235l176 -236h-200l-95 127l-98 -127h-199z" />
    <glyph glyph-name="Atilde" unicode="&#xc3;" horiz-adv-x="1550" 
d="M1079 1468l533 -1468h-369l-98 266h-338l-172 291l-211 -557h-379l543 1468h491zM645 584h393l-196 553zM1126 1761q-12 -57 -34 -106q-25 -47 -67 -70.5t-75 -23.5q-28 0 -90 24l-90 33q-29 6 -37 6q-24 0 -39.5 -12.5t-27.5 -55.5h-109q12 64 33 111q24 47 69 70.5
t80 23.5q19 0 31 -1t25.5 -5t30 -10t38.5 -16l29 -11q10 -4 29.5 -11t35.5 -7q17 0 28 8t18.5 18.5t11.5 20.5t8 14h102z" />
    <glyph glyph-name="Egrave" unicode="&#xc8;" horiz-adv-x="1189" 
d="M114 1468h1102l-158 -288h-594v-328h717v-287h-717v-276h717v-289h-1067v1468zM450 1802h222l112 -227h-141l-193 221v6z" />
    <glyph glyph-name="Eacute" unicode="&#xc9;" horiz-adv-x="1189" 
d="M114 1468h1102l-158 -288h-594v-328h717v-287h-717v-276h717v-289h-1067v1468zM910 1796l-192 -221h-142l113 227h221v-6z" />
    <glyph glyph-name="Ecircumflex" unicode="&#xca;" horiz-adv-x="1189" 
d="M114 1468h1102l-158 -288h-594v-328h717v-287h-717v-276h717v-289h-1067v1468zM527 1782h235l176 -236h-200l-94 127l-99 -127h-198z" />
    <glyph glyph-name="Igrave" unicode="&#xcc;" horiz-adv-x="505" 
d="M469 1468v-1468h-353v1468h353zM55 1802h221l113 -227h-141l-193 221v6z" />
    <glyph glyph-name="Iacute" unicode="&#xcd;" horiz-adv-x="505" 
d="M468 1468v-1468h-352v1468h352zM331 1802h217l-188 -227h-146z" />
    <glyph glyph-name="Ograve" unicode="&#xd2;" 
d="M837 1479q74 0 152 -9.5t151.5 -32t137 -61.5t110.5 -98q86 -107 124 -257.5t38 -305.5q0 -187 -48 -337.5t-134 -236.5q-80 -84 -180 -112q-95 -25 -181 -33t-165 -8q-168 0 -310.5 32.5t-240.5 118.5q-97 86 -148 258t-51 355v39.5t2 29.5l25 162q20 135 106 258
q55 80 127 127t152 71.5t165 32t168 7.5zM450 762q0 -129 31 -230q31 -104 124 -163.5t218 -59.5q92 0 178 40t131 118q45 74 52 139q8 64 10 81.5t2 31.5q0 110 -30 208.5t-103 159.5q-47 33 -119 51.5t-141 18.5q-68 0 -160 -31q-92 -30 -142.5 -128.5t-50.5 -235.5z
M615 1802h221l113 -227h-141l-193 221v6z" />
    <glyph glyph-name="Oacute" unicode="&#xd3;" 
d="M837 1479q74 0 152 -9.5t151.5 -32t137 -61.5t110.5 -98q86 -107 124 -257.5t38 -305.5q0 -187 -48 -337.5t-134 -236.5q-80 -84 -180 -112q-95 -25 -181 -33t-165 -8q-168 0 -310.5 32.5t-240.5 118.5q-97 86 -148 258t-51 355v39.5t2 29.5l25 162q20 135 106 258
q55 80 127 127t152 71.5t165 32t168 7.5zM450 762q0 -129 31 -230q31 -104 124 -163.5t218 -59.5q92 0 178 40t131 118q45 74 52 139q8 64 10 81.5t2 31.5q0 110 -30 208.5t-103 159.5q-47 33 -119 51.5t-141 18.5q-68 0 -160 -31q-92 -30 -142.5 -128.5t-50.5 -235.5z
M1074 1796l-192 -221h-142l113 227h221v-6z" />
    <glyph glyph-name="Ocircumflex" unicode="&#xd4;" 
d="M705 1782h236l176 -236h-201l-94 127l-98 -127h-199zM837 1479q74 0 152 -9.5t151.5 -32t137 -61.5t110.5 -98q86 -107 124 -257.5t38 -305.5q0 -187 -48 -337.5t-134 -236.5q-80 -84 -180 -112q-95 -25 -181 -33t-165 -8q-168 0 -310.5 32.5t-240.5 118.5
q-97 86 -148 258t-51 355v39.5t2 29.5l25 162q20 135 106 258q55 80 127 127t152 71.5t165 32t168 7.5zM450 762q0 -129 31 -230q31 -104 124 -163.5t218 -59.5q92 0 178 40t131 118q45 74 52 139q8 64 10 81.5t2 31.5q0 110 -30 208.5t-103 159.5q-47 33 -119 51.5
t-141 18.5q-68 0 -160 -31q-92 -30 -142.5 -128.5t-50.5 -235.5z" />
    <glyph glyph-name="Otilde" unicode="&#xd5;" 
d="M837 1479q74 0 152 -9.5t151.5 -32t137 -61.5t110.5 -98q86 -107 124 -257.5t38 -305.5q0 -187 -48 -337.5t-134 -236.5q-80 -84 -180 -112q-95 -25 -181 -33t-165 -8q-168 0 -310.5 32.5t-240.5 118.5q-97 86 -148 258t-51 355v39.5t2 29.5l25 162q20 135 106 258
q55 80 127 127t152 71.5t165 32t168 7.5zM450 762q0 -129 31 -230q31 -104 124 -163.5t218 -59.5q92 0 178 40t131 118q45 74 52 139q8 64 10 81.5t2 31.5q0 110 -30 208.5t-103 159.5q-47 33 -119 51.5t-141 18.5q-68 0 -160 -31q-92 -30 -142.5 -128.5t-50.5 -235.5z
M1106 1761q-13 -57 -35 -106q-25 -47 -67 -70.5t-74 -23.5q-29 0 -90 24l-91 33q-28 6 -36 6q-25 0 -40.5 -12.5t-27.5 -55.5h-109q13 64 33 111q25 47 70 70.5t80 23.5q18 0 30.5 -1t25.5 -5t29.5 -10t39.5 -16l28 -11q11 -4 30 -11t36 -7q16 0 27.5 8t18.5 18.5t11 20.5
t8 14h103z" />
    <glyph glyph-name="Ugrave" unicode="&#xd9;" horiz-adv-x="1427" 
d="M124 1468h350v-772v-67q0 -117 24.5 -187.5t80.5 -103.5q57 -31 98 -39t84 -8q102 0 178 45q78 47 100.5 133t22.5 225v774h350v-841q0 -256 -65 -377q-66 -119 -158 -172q-94 -53 -199.5 -71.5t-234.5 -18.5q-66 0 -122 4t-109.5 14t-106.5 30.5t-109 53.5
q-112 68 -149 201q-35 135 -35 364v813zM534 1802h221l113 -227h-141l-193 221v6z" />
    <glyph glyph-name="Uacute" unicode="&#xda;" horiz-adv-x="1427" 
d="M124 1468h350v-772v-67q0 -117 24.5 -187.5t80.5 -103.5q57 -31 98 -39t84 -8q102 0 178 45q78 47 100.5 133t22.5 225v774h350v-841q0 -256 -65 -377q-66 -119 -158 -172q-94 -53 -199.5 -71.5t-234.5 -18.5q-66 0 -122 4t-109.5 14t-106.5 30.5t-109 53.5
q-112 68 -149 201q-35 135 -35 364v813zM1044 1796l-192 -221h-142l113 227h221v-6z" />
    <glyph glyph-name="Yacute" unicode="&#xdd;" horiz-adv-x="1413" 
d="M40 1468h401l316 -462l289 462h411l-524 -815v-653h-350v647zM1043 1796l-192 -221h-142l113 227h221v-6z" />
    <glyph glyph-name="agrave" unicode="&#xe0;" horiz-adv-x="1165" 
d="M278 1108h415q117 0 203 -14.5t150 -77.5q63 -62 80.5 -160t17.5 -233v-623h-348v217l-152 -217h-69h-66q-141 0 -236.5 27.5t-134.5 95.5q-36 70 -47.5 124t-11.5 103q0 127 47 215q49 88 120 114t183 26h62h305v45q-8 22 -15.5 36.5t-22.5 22.5t-44 11t-78 3h-51h-449z
M552 449q-41 0 -64.5 -4.5t-46.5 -41.5q-10 -16 -10 -41q0 -12 4 -26t15.5 -27.5t33 -21.5t58.5 -8h254v170h-244zM423 1426h221l113 -228h-141l-193 221v7z" />
    <glyph glyph-name="aacute" unicode="&#xe1;" horiz-adv-x="1165" 
d="M278 1108h415q117 0 203 -14.5t150 -77.5q63 -62 80.5 -160t17.5 -233v-623h-348v217l-152 -217h-69h-66q-141 0 -236.5 27.5t-134.5 95.5q-36 70 -47.5 124t-11.5 103q0 127 47 215q49 88 120 114t183 26h62h305v45q-8 22 -15.5 36.5t-22.5 22.5t-44 11t-78 3h-51h-449z
M552 449q-41 0 -64.5 -4.5t-46.5 -41.5q-10 -16 -10 -41q0 -12 4 -26t15.5 -27.5t33 -21.5t58.5 -8h254v170h-244zM863 1419l-193 -221h-141l113 228h221v-7z" />
    <glyph glyph-name="acircumflex" unicode="&#xe2;" horiz-adv-x="1165" 
d="M532 1430h235l176 -236h-200l-95 127l-98 -127h-199zM278 1108h415q117 0 203 -14.5t150 -77.5q63 -62 80.5 -160t17.5 -233v-623h-348v217l-152 -217h-69h-66q-141 0 -236.5 27.5t-134.5 95.5q-36 70 -47.5 124t-11.5 103q0 127 47 215q49 88 120 114t183 26h62h305v45
q-8 22 -15.5 36.5t-22.5 22.5t-44 11t-78 3h-51h-449zM552 449q-41 0 -64.5 -4.5t-46.5 -41.5q-10 -16 -10 -41q0 -12 4 -26t15.5 -27.5t33 -21.5t58.5 -8h254v170h-244z" />
    <glyph glyph-name="atilde" unicode="&#xe3;" horiz-adv-x="1165" 
d="M278 1108h415q117 0 203 -14.5t150 -77.5q63 -62 80.5 -160t17.5 -233v-623h-348v217l-152 -217h-69h-66q-141 0 -236.5 27.5t-134.5 95.5q-36 70 -47.5 124t-11.5 103q0 127 47 215q49 88 120 114t183 26h62h305v45q-8 22 -15.5 36.5t-22.5 22.5t-44 11t-78 3h-51h-449z
M552 449q-41 0 -64.5 -4.5t-46.5 -41.5q-10 -16 -10 -41q0 -12 4 -26t15.5 -27.5t33 -21.5t58.5 -8h254v170h-244zM945 1425q-12 -57 -35 -106q-24 -47 -66 -70.5t-75 -23.5q-28 0 -90 24l-90 33q-29 6 -37 6q-24 0 -39.5 -12t-27.5 -55h-109q12 63 33 110q24 47 69 70.5
t80 23.5q19 0 31 -1t25.5 -5t30 -10t38.5 -16l29 -11q10 -4 29.5 -11t35.5 -7q17 0 28 8t18.5 18.5t11.5 20.5t8 14h102z" />
    <glyph glyph-name="egrave" unicode="&#xe8;" horiz-adv-x="1146" 
d="M1138 434h-701q43 -108 105 -133q63 -22 203 -22h380l-153 -279h-338h-70q-178 0 -260 45q-84 47 -131 121q-49 78 -70.5 182.5t-21.5 214.5q0 49 2 89t10 78t21.5 77t38.5 86q47 92 168 158q118 63 243 63q11 2 29 2h29q61 0 123.5 -9t119 -30.5t103.5 -54.5t80 -78
q65 -92 80.5 -210t15.5 -283zM710 834q-13 8 -38.5 12t-49.5 4q-82 8 -134.5 -44t-58.5 -136h369q-10 75 -26.5 108t-61.5 56zM383 1426h221l113 -228h-141l-193 221v7z" />
    <glyph glyph-name="eacute" unicode="&#xe9;" horiz-adv-x="1146" 
d="M1138 434h-701q43 -108 105 -133q63 -22 203 -22h380l-153 -279h-338h-70q-178 0 -260 45q-84 47 -131 121q-49 78 -70.5 182.5t-21.5 214.5q0 49 2 89t10 78t21.5 77t38.5 86q47 92 168 158q118 63 243 63q11 2 29 2h29q61 0 123.5 -9t119 -30.5t103.5 -54.5t80 -78
q65 -92 80.5 -210t15.5 -283zM710 834q-13 8 -38.5 12t-49.5 4q-82 8 -134.5 -44t-58.5 -136h369q-10 75 -26.5 108t-61.5 56zM891 1419l-193 -221h-141l113 228h221v-7z" />
    <glyph glyph-name="ecircumflex" unicode="&#xea;" horiz-adv-x="1146" 
d="M1138 434h-701q43 -108 105 -133q63 -22 203 -22h380l-153 -279h-338h-70q-178 0 -260 45q-84 47 -131 121q-49 78 -70.5 182.5t-21.5 214.5q0 49 2 89t10 78t21.5 77t38.5 86q47 92 168 158q118 63 243 63q11 2 29 2h29q61 0 123.5 -9t119 -30.5t103.5 -54.5t80 -78
q65 -92 80.5 -210t15.5 -283zM710 834q-13 8 -38.5 12t-49.5 4q-82 8 -134.5 -44t-58.5 -136h369q-10 75 -26.5 108t-61.5 56zM513 1430h235l176 -236h-200l-95 127l-98 -127h-199z" />
    <glyph glyph-name="igrave" unicode="&#xec;" horiz-adv-x="514" 
d="M116 1108h353v-1108h-353v1108zM55 1475h221l113 -228h-141l-193 221v7z" />
    <glyph glyph-name="iacute" unicode="&#xed;" horiz-adv-x="514" 
d="M116 1108h352v-1108h-352v1108zM331 1475h217l-188 -228h-146z" />
    <glyph glyph-name="ograve" unicode="&#xf2;" horiz-adv-x="1269" 
d="M651 1108q64 0 135.5 -4t138 -18.5t125 -44t99.5 -80.5q63 -82 86.5 -183.5t23.5 -220.5q0 -174 -38.5 -289.5t-98.5 -167.5q-59 -51 -171.5 -81.5t-272.5 -30.5q-148 0 -262.5 26.5t-188.5 91.5q-69 68 -104 201q-33 129 -33 275q0 36 2 62t4 67q21 127 74 211
q39 59 97.5 96t124 56.5t133 26.5t126.5 7zM465 657q-10 -51 -10 -122q0 -66 10 -123.5t33.5 -99.5t62.5 -64.5t94 -18.5q51 0 101 19q61 26 84.5 70t31.5 94q6 24 9.5 39.5t4.5 28t2 24.5t1 31q0 92 -19.5 159.5t-56.5 96.5q-35 30 -72 39.5t-73 9.5q-86 0 -142.5 -47.5
t-60.5 -135.5zM441 1426h221l113 -228h-141l-193 221v7z" />
    <glyph glyph-name="oacute" unicode="&#xf3;" horiz-adv-x="1269" 
d="M651 1108q64 0 135.5 -4t138 -18.5t125 -44t99.5 -80.5q63 -82 86.5 -183.5t23.5 -220.5q0 -174 -38.5 -289.5t-98.5 -167.5q-59 -51 -171.5 -81.5t-272.5 -30.5q-148 0 -262.5 26.5t-188.5 91.5q-69 68 -104 201q-33 129 -33 275q0 36 2 62t4 67q21 127 74 211
q39 59 97.5 96t124 56.5t133 26.5t126.5 7zM465 657q-10 -51 -10 -122q0 -66 10 -123.5t33.5 -99.5t62.5 -64.5t94 -18.5q51 0 101 19q61 26 84.5 70t31.5 94q6 24 9.5 39.5t4.5 28t2 24.5t1 31q0 92 -19.5 159.5t-56.5 96.5q-35 30 -72 39.5t-73 9.5q-86 0 -142.5 -47.5
t-60.5 -135.5zM891 1419l-193 -221h-141l113 228h221v-7z" />
    <glyph glyph-name="ocircumflex" unicode="&#xf4;" horiz-adv-x="1269" 
d="M559 1430h236l176 -236h-201l-94 127l-99 -127h-198zM651 1108q64 0 135.5 -4t138 -18.5t125 -44t99.5 -80.5q63 -82 86.5 -183.5t23.5 -220.5q0 -174 -38.5 -289.5t-98.5 -167.5q-59 -51 -171.5 -81.5t-272.5 -30.5q-148 0 -262.5 26.5t-188.5 91.5q-69 68 -104 201
q-33 129 -33 275q0 36 2 62t4 67q21 127 74 211q39 59 97.5 96t124 56.5t133 26.5t126.5 7zM465 657q-10 -51 -10 -122q0 -66 10 -123.5t33.5 -99.5t62.5 -64.5t94 -18.5q51 0 101 19q61 26 84.5 70t31.5 94q6 24 9.5 39.5t4.5 28t2 24.5t1 31q0 92 -19.5 159.5t-56.5 96.5
q-35 30 -72 39.5t-73 9.5q-86 0 -142.5 -47.5t-60.5 -135.5z" />
    <glyph glyph-name="otilde" unicode="&#xf5;" horiz-adv-x="1269" 
d="M651 1108q64 0 135.5 -4t138 -18.5t125 -44t99.5 -80.5q63 -82 86.5 -183.5t23.5 -220.5q0 -174 -38.5 -289.5t-98.5 -167.5q-59 -51 -171.5 -81.5t-272.5 -30.5q-148 0 -262.5 26.5t-188.5 91.5q-69 68 -104 201q-33 129 -33 275q0 36 2 62t4 67q21 127 74 211
q39 59 97.5 96t124 56.5t133 26.5t126.5 7zM465 657q-10 -51 -10 -122q0 -66 10 -123.5t33.5 -99.5t62.5 -64.5t94 -18.5q51 0 101 19q61 26 84.5 70t31.5 94q6 24 9.5 39.5t4.5 28t2 24.5t1 31q0 92 -19.5 159.5t-56.5 96.5q-35 30 -72 39.5t-73 9.5q-86 0 -142.5 -47.5
t-60.5 -135.5zM983 1425q-12 -57 -35 -106q-24 -47 -66 -70.5t-75 -23.5q-29 0 -90 24l-90 33q-29 6 -37 6q-25 0 -40 -12t-28 -55h-108q12 63 33 110q24 47 69 70.5t80 23.5q19 0 31 -1t25.5 -5t30 -10t38.5 -16l29 -11q10 -4 29.5 -11t35.5 -7q17 0 28 8t18.5 18.5
t11.5 20.5t8 14h102z" />
    <glyph glyph-name="divide" unicode="&#xf7;" horiz-adv-x="1706" 
 />
    <glyph glyph-name="glyph216" unicode="&#xf9;" horiz-adv-x="1181" 
d="M122 1108h350v-565v-58q0 -82 12 -125q15 -43 52 -63q39 -18 266 -18v829h348v-1108h-348v199l-133 -199h-76q-162 0 -251 15.5t-140 62.5t-65.5 116.5t-14.5 161.5v52v700zM440 1426h221l113 -228h-141l-193 221v7z" />
    <glyph glyph-name="glyph217" unicode="&#xfa;" horiz-adv-x="1181" 
d="M122 1108h350v-565v-58q0 -82 12 -125q15 -43 52 -63q39 -18 266 -18v829h348v-1108h-348v199l-133 -199h-76q-162 0 -251 15.5t-140 62.5t-65.5 116.5t-14.5 161.5v52v700zM890 1419l-192 -221h-142l113 228h221v-7z" />
    <glyph glyph-name="glyph234" unicode="&#xfd;" horiz-adv-x="1171" 
d="M45 1108h385l196 -664l197 664h383l-440 -1169q-56 -136 -123.5 -225t-132.5 -105q-70 -21 -115 -23q-25 -2 -61.5 -3t-83.5 -1h-74l-166 287h123h59q60 0 103 6t71.5 23.5t43 49.5t14.5 83zM890 1419l-193 -221h-141l113 228h221v-7z" />
    <glyph glyph-name="Abreve" unicode="&#x102;" horiz-adv-x="1550" 
d="M1079 1468l533 -1468h-369l-98 266h-338l-172 291l-211 -557h-379l543 1468h491zM645 584h393l-196 553zM711 1808q2 -65 30.5 -93.5t87.5 -28.5q134 0 134 120l149 -28q0 -60 -25.5 -108t-68.5 -75q-41 -22 -87 -30.5t-104 -8.5q-53 0 -97 8.5t-93 37.5
q-45 28 -60.5 80.5t-15.5 95.5z" />
    <glyph glyph-name="abreve" unicode="&#x103;" horiz-adv-x="1165" 
d="M278 1108h415q117 0 203 -14.5t150 -77.5q63 -62 80.5 -160t17.5 -233v-623h-348v217l-152 -217h-69h-66q-141 0 -236.5 27.5t-134.5 95.5q-36 70 -47.5 124t-11.5 103q0 127 47 215q49 88 120 114t183 26h62h305v45q-8 22 -15.5 36.5t-22.5 22.5t-44 11t-78 3h-51h-449z
M552 449q-41 0 -64.5 -4.5t-46.5 -41.5q-10 -16 -10 -41q0 -12 4 -26t15.5 -27.5t33 -21.5t58.5 -8h254v170h-244zM525 1442q3 -66 31.5 -94.5t87.5 -28.5q133 0 133 121l150 -29q0 -59 -25.5 -107.5t-68.5 -74.5q-41 -23 -87 -31t-104 -8q-53 0 -97 8t-93 37
q-45 29 -60.5 81t-15.5 95z" />
    <glyph glyph-name="Ccaron" unicode="&#x10c;" horiz-adv-x="1274" 
 />
    <glyph glyph-name="ccaron" unicode="&#x10d;" horiz-adv-x="922" 
 />
    <glyph glyph-name="Dslash" unicode="&#x110;" horiz-adv-x="1484" 
d="M780 1468q108 0 198 -9t162 -32.5t127 -66.5t92 -111q78 -135 107.5 -260t29.5 -262q0 -133 -25.5 -251t-99.5 -249q-73 -131 -208.5 -179t-346.5 -48h-702v1468h666zM464 311h262q129 0 209 29t121 102q41 74 55.5 144.5t14.5 148.5q0 168 -58 258q-28 47 -61 77
t-73 47.5t-91 23.5t-115 6h-264v-273h406l-152 -288h-254v-275z" />
    <glyph glyph-name="dcroat" unicode="&#x111;" horiz-adv-x="1208" 
d="M1279 1223h-108v-1223h-349v229l-153 -229h-113q-127 0 -229.5 36t-155.5 126q-51 92 -70.5 191.5t-19.5 209.5q0 103 15.5 190t74.5 189q62 102 168 133q104 33 305 33h178v115h-161v123h161v149h349v-149h108v-123zM659 797q-80 0 -127 -33q-25 -16 -41.5 -34.5
t-26.5 -45.5t-15.5 -63.5t-5.5 -88.5q3 -59 10 -105t31.5 -78t76.5 -50t147 -20h114v518h-163z" />
    <glyph glyph-name="Itilde" unicode="&#x128;" horiz-adv-x="505" 
d="M469 1468v-1468h-353v1468h353zM581 1761q-12 -57 -34 -106q-25 -47 -67 -70.5t-75 -23.5q-28 0 -90 24l-90 33q-29 6 -37 6q-24 0 -39.5 -12.5t-27.5 -55.5h-109q12 64 33 111q24 47 69 70.5t80 23.5q19 0 31 -1t25.5 -5t30 -10t38.5 -16l29 -11q10 -4 29.5 -11t35.5 -7
q17 0 28 8t18.5 18.5t11.5 20.5t8 14h102z" />
    <glyph glyph-name="itilde" unicode="&#x129;" horiz-adv-x="514" 
d="M116 1108h353v-1108h-353v1108zM587 1434q-12 -58 -34 -107q-25 -47 -67 -70.5t-75 -23.5q-28 0 -90 24l-90 33q-29 6 -37 6q-24 0 -39.5 -12t-27.5 -55h-109q12 63 33 110q24 47 69 71t80 24q19 0 31 -1t25.5 -5.5t30 -10.5t38.5 -16l29 -10q10 -5 29.5 -12t35.5 -7
q17 0 28 8.5t18.5 18.5t11.5 20.5t8 14.5h102z" />
    <glyph glyph-name="Utilde" unicode="&#x168;" horiz-adv-x="1427" 
d="M124 1468h350v-772v-67q0 -117 24.5 -187.5t80.5 -103.5q57 -31 98 -39t84 -8q102 0 178 45q78 47 100.5 133t22.5 225v774h350v-841q0 -256 -65 -377q-66 -119 -158 -172q-94 -53 -199.5 -71.5t-234.5 -18.5q-66 0 -122 4t-109.5 14t-106.5 30.5t-109 53.5
q-112 68 -149 201q-35 135 -35 364v813zM1082 1761q-13 -57 -35 -106q-25 -47 -67 -70.5t-74 -23.5q-29 0 -90 24l-91 33q-28 6 -36 6q-25 0 -40.5 -12.5t-27.5 -55.5h-109q13 64 33 111q25 47 70 70.5t80 23.5q18 0 30.5 -1t25.5 -5t29.5 -10t39.5 -16l28 -11q11 -4 30 -11
t36 -7q16 0 27.5 8t18.5 18.5t11 20.5t8 14h103z" />
    <glyph glyph-name="utilde" unicode="&#x169;" horiz-adv-x="1181" 
d="M122 1108h350v-565v-58q0 -82 12 -125q15 -43 52 -63q39 -18 266 -18v829h348v-1108h-348v199l-133 -199h-76q-162 0 -251 15.5t-140 62.5t-65.5 116.5t-14.5 161.5v52v700zM944 1425q-13 -57 -35 -106q-25 -47 -67 -70.5t-75 -23.5q-28 0 -90 24l-90 33q-29 6 -37 6
q-24 0 -39.5 -12t-27.5 -55h-109q12 63 33 110q25 47 70 70.5t79 23.5q19 0 31 -1t25.5 -5t30 -10t38.5 -16l29 -11q10 -4 29.5 -11t36.5 -7q16 0 27 8t18.5 18.5t11.5 20.5t8 14h103z" />
    <glyph glyph-name="Ohorn" unicode="&#x1a0;" 
d="M837 1479q74 0 152 -9.5t151.5 -32t137 -61.5t110.5 -98q23 0 34 16.5t15.5 42t4.5 55v54.5l135 -51q0 -47 -10.5 -95.5t-44.5 -76.5q-21 -17 -38.5 -23t-39.5 -10q55 -103 80.5 -225.5t25.5 -249.5q0 -187 -48 -337.5t-134 -236.5q-80 -84 -180 -112q-95 -25 -181 -33
t-165 -8q-168 0 -310.5 32.5t-240.5 118.5q-97 86 -148 258t-51 355v39.5t2 29.5l25 162q20 135 106 258q55 80 127 127t152 71.5t165 32t168 7.5zM450 762q0 -129 31 -230q31 -104 124 -163.5t218 -59.5q92 0 178 40t131 118q45 74 52 139q8 64 10 81.5t2 31.5
q0 110 -30 208.5t-103 159.5q-47 33 -119 51.5t-141 18.5q-68 0 -160 -31q-92 -30 -142.5 -128.5t-50.5 -235.5z" />
    <glyph glyph-name="ohorn" unicode="&#x1a1;" horiz-adv-x="1269" 
d="M651 1108q64 0 135.5 -4t138 -18.5t125 -44t99.5 -80.5l6 -11q18 4 26.5 22.5t12.5 43t4 52.5v50l135 -51q0 -47 -10 -95t-45 -77q-33 -27 -72 -31q29 -67 41 -144t12 -163q0 -174 -38.5 -289.5t-98.5 -167.5q-59 -51 -171.5 -81.5t-272.5 -30.5q-148 0 -262.5 26.5
t-188.5 91.5q-69 68 -104 201q-33 129 -33 275q0 36 2 62t4 67q21 127 74 211q39 59 97.5 96t124 56.5t133 26.5t126.5 7zM465 657q-10 -51 -10 -122q0 -66 10 -123.5t33.5 -99.5t62.5 -64.5t94 -18.5q51 0 101 19q61 26 84.5 70t31.5 94q6 24 9.5 39.5t4.5 28t2 24.5t1 31
q0 92 -19.5 159.5t-56.5 96.5q-35 30 -72 39.5t-73 9.5q-86 0 -142.5 -47.5t-60.5 -135.5z" />
    <glyph glyph-name="Uhorn" unicode="&#x1af;" horiz-adv-x="1427" 
d="M1412 1313q23 0 34 16.5t15 42t4 55v54.5l136 -51q0 -48 -10.5 -96t-45.5 -77q-30 -24 -59 -28t-74 -4v-598q0 -256 -65 -377q-66 -119 -158 -172q-94 -53 -199.5 -71.5t-234.5 -18.5q-66 0 -122 4t-109.5 14t-106.5 30.5t-109 53.5q-112 68 -149 201q-35 135 -35 364
v813h350v-839q0 -117 24.5 -187.5t80.5 -103.5q57 -31 98 -39t84 -8q102 0 178 45q78 47 100.5 133t22.5 225v774h350v-155z" />
    <glyph glyph-name="uhorn" unicode="&#x1b0;" horiz-adv-x="1181" 
d="M1150 950q23 0 34 16.5t15 42t4 55.5v54l136 -51q0 -47 -10.5 -95t-45.5 -77q-31 -25 -59.5 -29t-73.5 -4v-862h-348v199l-133 -199h-76q-162 0 -251 15.5t-140 62.5t-65.5 116.5t-14.5 161.5v752h350v-623q0 -82 12 -125q15 -43 52 -63q39 -18 266 -18v829h348v-158z
" />
    <glyph glyph-name="uni1EA0" unicode="&#x1ea0;" horiz-adv-x="1550" 
d="M1079 1468l533 -1468h-369l-98 266h-338l-172 291l-211 -557h-379l543 1468h491zM645 584h393l-196 553zM1004 -119v-162h-352v162h352z" />
    <glyph glyph-name="uni1EA1" unicode="&#x1ea1;" horiz-adv-x="1165" 
d="M278 1108h415q117 0 203 -14.5t150 -77.5q63 -62 80.5 -160t17.5 -233v-623h-348v217l-152 -217h-69h-66q-141 0 -236.5 27.5t-134.5 95.5q-36 70 -47.5 124t-11.5 103q0 127 47 215q49 88 120 114t183 26h62h305v45q-8 22 -15.5 36.5t-22.5 22.5t-44 11t-78 3h-51h-449z
M552 449q-41 0 -64.5 -4.5t-46.5 -41.5q-10 -16 -10 -41q0 -12 4 -26t15.5 -27.5t33 -21.5t58.5 -8h254v170h-244zM798 -119v-162h-352v162h352z" />
    <glyph glyph-name="uni1EA2" unicode="&#x1ea2;" horiz-adv-x="1550" 
d="M1079 1468l533 -1468h-369l-98 266h-338l-172 291l-211 -557h-379l543 1468h491zM645 584h393l-196 553zM793 1702h116q35 0 54.5 9t19.5 30q0 28 -22.5 38.5t-81.5 10.5h-89l-36 113h178q65 0 96 -10.5t53 -55.5q23 -37 23 -96q0 -51 -23.5 -92t-56.5 -52q-27 -8 -96 -8
h-37l-19 -47h-118z" />
    <glyph glyph-name="uni1EA3" unicode="&#x1ea3;" horiz-adv-x="1165" 
d="M278 1108h415q117 0 203 -14.5t150 -77.5q63 -62 80.5 -160t17.5 -233v-623h-348v217l-152 -217h-69h-66q-141 0 -236.5 27.5t-134.5 95.5q-36 70 -47.5 124t-11.5 103q0 127 47 215q49 88 120 114t183 26h62h305v45q-8 22 -15.5 36.5t-22.5 22.5t-44 11t-78 3h-51h-449z
M552 449q-41 0 -64.5 -4.5t-46.5 -41.5q-10 -16 -10 -41q0 -12 4 -26t15.5 -27.5t33 -21.5t58.5 -8h254v170h-244zM564 1358h116q35 0 54.5 9.5t19.5 29.5q0 29 -22.5 39t-81.5 10h-88l-37 113h178q65 0 96 -10.5t53 -55.5q23 -36 23 -96q0 -51 -23.5 -92t-56.5 -51
q-27 -8 -96 -8h-37l-19 -48h-118z" />
    <glyph glyph-name="uni1EA4" unicode="&#x1ea4;" horiz-adv-x="1550" 
d="M1079 1468l533 -1468h-369l-98 266h-338l-172 291l-211 -557h-379l543 1468h491zM645 584h393l-196 553zM715 1782h235l176 -236h-200l-95 127l-98 -127h-199zM1103 2066l-193 -222h-141l112 228h222v-6z" />
    <glyph glyph-name="uni1EA5" unicode="&#x1ea5;" horiz-adv-x="1165" 
d="M532 1430h235l176 -236h-200l-95 127l-98 -127h-199zM278 1108h415q117 0 203 -14.5t150 -77.5q63 -62 80.5 -160t17.5 -233v-623h-348v217l-152 -217h-69h-66q-141 0 -236.5 27.5t-134.5 95.5q-36 70 -47.5 124t-11.5 103q0 127 47 215q49 88 120 114t183 26h62h305v45
q-8 22 -15.5 36.5t-22.5 22.5t-44 11t-78 3h-51h-449zM552 449q-41 0 -64.5 -4.5t-46.5 -41.5q-10 -16 -10 -41q0 -12 4 -26t15.5 -27.5t33 -21.5t58.5 -8h254v170h-244zM702 1722h217l-189 -227h-145z" />
    <glyph glyph-name="uni1EA6" unicode="&#x1ea6;" horiz-adv-x="1550" 
d="M1079 1468l533 -1468h-369l-98 266h-338l-172 291l-211 -557h-379l543 1468h491zM645 584h393l-196 553zM715 1782h235l176 -236h-200l-95 127l-98 -127h-199zM575 2072h221l113 -228h-142l-192 222v6z" />
    <glyph glyph-name="uni1EA7" unicode="&#x1ea7;" horiz-adv-x="1165" 
d="M532 1430h235l176 -236h-200l-95 127l-98 -127h-199zM278 1108h415q117 0 203 -14.5t150 -77.5q63 -62 80.5 -160t17.5 -233v-623h-348v217l-152 -217h-69h-66q-141 0 -236.5 27.5t-134.5 95.5q-36 70 -47.5 124t-11.5 103q0 127 47 215q49 88 120 114t183 26h62h305v45
q-8 22 -15.5 36.5t-22.5 22.5t-44 11t-78 3h-51h-449zM552 449q-41 0 -64.5 -4.5t-46.5 -41.5q-10 -16 -10 -41q0 -12 4 -26t15.5 -27.5t33 -21.5t58.5 -8h254v170h-244zM726 1495h-146l-188 227h217z" />
    <glyph glyph-name="uni1EA8" unicode="&#x1ea8;" horiz-adv-x="1550" 
d="M1079 1468l533 -1468h-369l-98 266h-338l-172 291l-211 -557h-379l543 1468h491zM645 584h393l-196 553zM715 1782h235l176 -236h-200l-95 127l-98 -127h-199zM827 1989h117q35 0 54.5 9t19.5 30q0 28 -22.5 38.5t-82.5 10.5h-88l-37 112h179q65 0 96 -10t53 -55
q23 -37 23 -96q0 -52 -23.5 -93t-56.5 -51q-27 -8 -96 -8h-37l-19 -47h-119z" />
    <glyph glyph-name="uni1EA9" unicode="&#x1ea9;" horiz-adv-x="1165" 
d="M532 1430h235l176 -236h-200l-95 127l-98 -127h-199zM278 1108h415q117 0 203 -14.5t150 -77.5q63 -62 80.5 -160t17.5 -233v-623h-348v217l-152 -217h-69h-66q-141 0 -236.5 27.5t-134.5 95.5q-36 70 -47.5 124t-11.5 103q0 127 47 215q49 88 120 114t183 26h62h305v45
q-8 22 -15.5 36.5t-22.5 22.5t-44 11t-78 3h-51h-449zM552 449q-41 0 -64.5 -4.5t-46.5 -41.5q-10 -16 -10 -41q0 -12 4 -26t15.5 -27.5t33 -21.5t58.5 -8h254v170h-244zM609 1640h117q35 0 54.5 9.5t19.5 29.5q0 29 -22.5 39.5t-82.5 10.5h-88l-36 112h178q65 0 96 -10
t53 -55q23 -37 23 -97q0 -51 -23.5 -92t-56.5 -51q-27 -8 -96 -8h-37l-19 -47h-118z" />
    <glyph glyph-name="uni1EAA" unicode="&#x1eaa;" horiz-adv-x="1550" 
d="M1079 1468l533 -1468h-369l-98 266h-338l-172 291l-211 -557h-379l543 1468h491zM645 584h393l-196 553zM715 1782h235l176 -236h-200l-95 127l-98 -127h-199zM1184 2048q-13 -57 -35 -106q-25 -48 -67 -71.5t-74 -23.5q-29 0 -91 25l-90 33q-28 6 -37 6
q-24 0 -39.5 -12.5t-27.5 -55.5h-109q13 64 33 111q25 47 70 70.5t80 23.5q18 0 30.5 -1t25.5 -5t29.5 -10.5t39.5 -16.5l28 -10q10 -4 29.5 -11t36.5 -7q16 0 27.5 8t18.5 18t11 20.5t8 14.5h103z" />
    <glyph glyph-name="uni1EAB" unicode="&#x1eab;" horiz-adv-x="1165" 
d="M532 1430h235l176 -236h-200l-95 127l-98 -127h-199zM278 1108h415q117 0 203 -14.5t150 -77.5q63 -62 80.5 -160t17.5 -233v-623h-348v217l-152 -217h-69h-66q-141 0 -236.5 27.5t-134.5 95.5q-36 70 -47.5 124t-11.5 103q0 127 47 215q49 88 120 114t183 26h62h305v45
q-8 22 -15.5 36.5t-22.5 22.5t-44 11t-78 3h-51h-449zM552 449q-41 0 -64.5 -4.5t-46.5 -41.5q-10 -16 -10 -41q0 -12 4 -26t15.5 -27.5t33 -21.5t58.5 -8h254v170h-244zM1019 1692q-12 -58 -35 -107q-24 -47 -66 -70.5t-75 -23.5q-29 0 -90 25l-90 32q-29 6 -37 6
q-25 0 -40 -12t-28 -55h-108q12 63 32 110q25 48 70 71.5t80 23.5q18 0 30.5 -1t26 -5.5t29.5 -10.5t39 -16l29 -10q10 -4 29.5 -11.5t35.5 -7.5t27.5 8.5t18.5 18.5t11.5 20.5t8.5 14.5h102z" />
    <glyph glyph-name="uni1EAC" unicode="&#x1eac;" horiz-adv-x="1550" 
d="M1079 1468l533 -1468h-369l-98 266h-338l-172 291l-211 -557h-379l543 1468h491zM645 584h393l-196 553zM715 1782h235l176 -236h-200l-95 127l-98 -127h-199zM1004 -119v-162h-352v162h352z" />
    <glyph glyph-name="uni1EAD" unicode="&#x1ead;" horiz-adv-x="1165" 
d="M532 1430h235l176 -236h-200l-95 127l-98 -127h-199zM278 1108h415q117 0 203 -14.5t150 -77.5q63 -62 80.5 -160t17.5 -233v-623h-348v217l-152 -217h-69h-66q-141 0 -236.5 27.5t-134.5 95.5q-36 70 -47.5 124t-11.5 103q0 127 47 215q49 88 120 114t183 26h62h305v45
q-8 22 -15.5 36.5t-22.5 22.5t-44 11t-78 3h-51h-449zM552 449q-41 0 -64.5 -4.5t-46.5 -41.5q-10 -16 -10 -41q0 -12 4 -26t15.5 -27.5t33 -21.5t58.5 -8h254v170h-244zM797 -119v-162h-352v162h352z" />
    <glyph glyph-name="uni1EAE" unicode="&#x1eae;" horiz-adv-x="1550" 
d="M1079 1468l533 -1468h-369l-98 266h-338l-172 291l-211 -557h-379l543 1468h491zM645 584h393l-196 553zM711 1808q2 -65 30.5 -93.5t87.5 -28.5q134 0 134 120l149 -28q0 -60 -25.5 -108t-68.5 -75q-41 -22 -87 -30.5t-104 -8.5q-53 0 -97 8.5t-93 37.5
q-45 28 -60.5 80.5t-15.5 95.5zM1103 2066l-193 -222h-141l112 228h222v-6z" />
    <glyph glyph-name="uni1EAF" unicode="&#x1eaf;" horiz-adv-x="1165" 
d="M278 1108h415q117 0 203 -14.5t150 -77.5q63 -62 80.5 -160t17.5 -233v-623h-348v217l-152 -217h-69h-66q-141 0 -236.5 27.5t-134.5 95.5q-36 70 -47.5 124t-11.5 103q0 127 47 215q49 88 120 114t183 26h62h305v45q-8 22 -15.5 36.5t-22.5 22.5t-44 11t-78 3h-51h-449z
M552 449q-41 0 -64.5 -4.5t-46.5 -41.5q-10 -16 -10 -41q0 -12 4 -26t15.5 -27.5t33 -21.5t58.5 -8h254v170h-244zM525 1442q3 -66 31.5 -94.5t87.5 -28.5q133 0 133 121l150 -29q0 -59 -25.5 -107.5t-68.5 -74.5q-41 -23 -87 -31t-104 -8q-53 0 -97 8t-93 37
q-45 29 -60.5 81t-15.5 95zM712 1722h217l-189 -227h-145z" />
    <glyph glyph-name="uni1EB0" unicode="&#x1eb0;" horiz-adv-x="1550" 
d="M1079 1468l533 -1468h-369l-98 266h-338l-172 291l-211 -557h-379l543 1468h491zM645 584h393l-196 553zM711 1808q2 -65 30.5 -93.5t87.5 -28.5q134 0 134 120l149 -28q0 -60 -25.5 -108t-68.5 -75q-41 -22 -87 -30.5t-104 -8.5q-53 0 -97 8.5t-93 37.5
q-45 28 -60.5 80.5t-15.5 95.5zM575 2072h221l113 -228h-142l-192 222v6z" />
    <glyph glyph-name="uni1EB1" unicode="&#x1eb1;" horiz-adv-x="1165" 
d="M278 1108h415q117 0 203 -14.5t150 -77.5q63 -62 80.5 -160t17.5 -233v-623h-348v217l-152 -217h-69h-66q-141 0 -236.5 27.5t-134.5 95.5q-36 70 -47.5 124t-11.5 103q0 127 47 215q49 88 120 114t183 26h62h305v45q-8 22 -15.5 36.5t-22.5 22.5t-44 11t-78 3h-51h-449z
M552 449q-41 0 -64.5 -4.5t-46.5 -41.5q-10 -16 -10 -41q0 -12 4 -26t15.5 -27.5t33 -21.5t58.5 -8h254v170h-244zM525 1442q3 -66 31.5 -94.5t87.5 -28.5q133 0 133 121l150 -29q0 -59 -25.5 -107.5t-68.5 -74.5q-41 -23 -87 -31t-104 -8q-53 0 -97 8t-93 37
q-45 29 -60.5 81t-15.5 95zM726 1495h-146l-188 227h217z" />
    <glyph glyph-name="uni1EB2" unicode="&#x1eb2;" horiz-adv-x="1550" 
d="M1079 1468l533 -1468h-369l-98 266h-338l-172 291l-211 -557h-379l543 1468h491zM645 584h393l-196 553zM711 1808q2 -65 30.5 -93.5t87.5 -28.5q134 0 134 120l149 -28q0 -60 -25.5 -108t-68.5 -75q-41 -22 -87 -30.5t-104 -8.5q-53 0 -97 8.5t-93 37.5
q-45 28 -60.5 80.5t-15.5 95.5zM827 1989h117q35 0 54.5 9t19.5 30q0 28 -22.5 38.5t-82.5 10.5h-88l-37 112h179q65 0 96 -10t53 -55q23 -37 23 -96q0 -52 -24 -93t-56 -51q-27 -8 -97 -8h-36l-19 -47h-119z" />
    <glyph glyph-name="uni1EB3" unicode="&#x1eb3;" horiz-adv-x="1165" 
d="M278 1108h415q117 0 203 -14.5t150 -77.5q63 -62 80.5 -160t17.5 -233v-623h-348v217l-152 -217h-69h-66q-141 0 -236.5 27.5t-134.5 95.5q-36 70 -47.5 124t-11.5 103q0 127 47 215q49 88 120 114t183 26h62h305v45q-8 22 -15.5 36.5t-22.5 22.5t-44 11t-78 3h-51h-449z
M552 449q-41 0 -64.5 -4.5t-46.5 -41.5q-10 -16 -10 -41q0 -12 4 -26t15.5 -27.5t33 -21.5t58.5 -8h254v170h-244zM525 1442q3 -66 31.5 -94.5t87.5 -28.5q133 0 133 121l150 -29q0 -59 -25.5 -107.5t-68.5 -74.5q-41 -23 -87 -31t-104 -8q-53 0 -97 8t-93 37
q-45 29 -60.5 81t-15.5 95zM609 1640h117q35 0 54.5 9.5t19.5 29.5q0 29 -22.5 39.5t-82.5 10.5h-88l-36 112h178q65 0 96 -10t53 -55q23 -37 23 -97q0 -51 -23.5 -92t-56.5 -51q-27 -8 -96 -8h-37l-19 -47h-118z" />
    <glyph glyph-name="uni1EB4" unicode="&#x1eb4;" horiz-adv-x="1550" 
d="M1079 1468l533 -1468h-369l-98 266h-338l-172 291l-211 -557h-379l543 1468h491zM645 584h393l-196 553zM711 1808q2 -65 30.5 -93.5t87.5 -28.5q134 0 134 120l149 -28q0 -60 -25.5 -108t-68.5 -75q-41 -22 -87 -30.5t-104 -8.5q-53 0 -97 8.5t-93 37.5
q-45 28 -60.5 80.5t-15.5 95.5zM1184 2048q-13 -57 -35 -106q-25 -48 -67 -71.5t-74 -23.5q-29 0 -91 25l-90 33q-28 6 -37 6q-24 0 -39.5 -12.5t-27.5 -55.5h-109q13 64 33 111q25 47 70 70.5t80 23.5q18 0 30.5 -1t25.5 -5t29.5 -10.5t38.5 -16.5l29 -10q10 -4 29.5 -11
t36.5 -7q16 0 27.5 8t18.5 18t11 20.5t8 14.5h103z" />
    <glyph glyph-name="uni1EB5" unicode="&#x1eb5;" horiz-adv-x="1165" 
d="M278 1108h415q117 0 203 -14.5t150 -77.5q63 -62 80.5 -160t17.5 -233v-623h-348v217l-152 -217h-69h-66q-141 0 -236.5 27.5t-134.5 95.5q-36 70 -47.5 124t-11.5 103q0 127 47 215q49 88 120 114t183 26h62h305v45q-8 22 -15.5 36.5t-22.5 22.5t-44 11t-78 3h-51h-449z
M552 449q-41 0 -64.5 -4.5t-46.5 -41.5q-10 -16 -10 -41q0 -12 4 -26t15.5 -27.5t33 -21.5t58.5 -8h254v170h-244zM525 1442q3 -66 31.5 -94.5t87.5 -28.5q133 0 133 121l150 -29q0 -59 -25.5 -107.5t-68.5 -74.5q-41 -23 -87 -31t-104 -8q-53 0 -97 8t-93 37
q-45 29 -60.5 81t-15.5 95zM1019 1692q-12 -58 -35 -107q-24 -47 -66 -70.5t-75 -23.5q-29 0 -90 25l-90 32q-29 6 -37 6q-25 0 -40 -12t-28 -55h-108q12 63 32 110q25 48 70 71.5t80 23.5q18 0 30.5 -1t26 -5.5t29.5 -10.5t39 -16l29 -10q10 -4 29.5 -11.5t35.5 -7.5
t27.5 8.5t18.5 18.5t11.5 20.5t8.5 14.5h102z" />
    <glyph glyph-name="uni1EB6" unicode="&#x1eb6;" horiz-adv-x="1550" 
d="M1079 1468l533 -1468h-369l-98 266h-338l-172 291l-211 -557h-379l543 1468h491zM645 584h393l-196 553zM711 1808q2 -65 30.5 -93.5t87.5 -28.5q134 0 134 120l149 -28q0 -60 -25.5 -108t-68.5 -75q-41 -22 -87 -30.5t-104 -8.5q-53 0 -97 8.5t-93 37.5
q-45 28 -60.5 80.5t-15.5 95.5zM1004 -119v-162h-352v162h352z" />
    <glyph glyph-name="uni1EB7" unicode="&#x1eb7;" horiz-adv-x="1165" 
d="M278 1108h415q117 0 203 -14.5t150 -77.5q63 -62 80.5 -160t17.5 -233v-623h-348v217l-152 -217h-69h-66q-141 0 -236.5 27.5t-134.5 95.5q-36 70 -47.5 124t-11.5 103q0 127 47 215q49 88 120 114t183 26h62h305v45q-8 22 -15.5 36.5t-22.5 22.5t-44 11t-78 3h-51h-449z
M552 449q-41 0 -64.5 -4.5t-46.5 -41.5q-10 -16 -10 -41q0 -12 4 -26t15.5 -27.5t33 -21.5t58.5 -8h254v170h-244zM525 1442q3 -66 31.5 -94.5t87.5 -28.5q133 0 133 121l150 -29q0 -59 -25.5 -107.5t-68.5 -74.5q-41 -23 -87 -31t-104 -8q-53 0 -97 8t-93 37
q-45 29 -60.5 81t-15.5 95zM797 -119v-162h-352v162h352z" />
    <glyph glyph-name="uni1EB8" unicode="&#x1eb8;" horiz-adv-x="1189" 
d="M114 1468h1102l-158 -288h-594v-328h717v-287h-717v-276h717v-289h-1067v1468zM830 -119v-162h-353v162h353z" />
    <glyph glyph-name="uni1EB9" unicode="&#x1eb9;" horiz-adv-x="1146" 
d="M1138 434h-701q43 -108 105 -133q63 -22 203 -22h380l-153 -279h-338h-70q-178 0 -260 45q-84 47 -131 121q-49 78 -70.5 182.5t-21.5 214.5q0 49 2 89t10 78t21.5 77t38.5 86q47 92 168 158q118 63 243 63q11 2 29 2h29q61 0 123.5 -9t119 -30.5t103.5 -54.5t80 -78
q65 -92 80.5 -210t15.5 -283zM710 834q-13 8 -38.5 12t-49.5 4q-82 8 -134.5 -44t-58.5 -136h369q-10 75 -26.5 108t-61.5 56zM790 -119v-162h-353v162h353z" />
    <glyph glyph-name="uni1EBA" unicode="&#x1eba;" horiz-adv-x="1189" 
d="M114 1468h1102l-158 -288h-594v-328h717v-287h-717v-276h717v-289h-1067v1468zM580 1702h117q34 0 53.5 9t19.5 30q0 28 -22.5 38.5t-81.5 10.5h-88l-37 113h178q66 0 96.5 -10.5t53.5 -55.5q22 -37 22 -96q0 -51 -23.5 -92t-56.5 -52q-26 -8 -96 -8h-37l-18 -47h-119z
" />
    <glyph glyph-name="uni1EBB" unicode="&#x1ebb;" horiz-adv-x="1146" 
d="M1138 434h-701q43 -108 105 -133q63 -22 203 -22h380l-153 -279h-338h-70q-178 0 -260 45q-84 47 -131 121q-49 78 -70.5 182.5t-21.5 214.5q0 49 2 89t10 78t21.5 77t38.5 86q47 92 168 158q118 63 243 63q11 2 29 2h29q61 0 123.5 -9t119 -30.5t103.5 -54.5t80 -78
q65 -92 80.5 -210t15.5 -283zM710 834q-13 8 -38.5 12t-49.5 4q-82 8 -134.5 -44t-58.5 -136h369q-10 75 -26.5 108t-61.5 56zM601 1358h116q35 0 54.5 9.5t19.5 29.5q0 29 -22.5 39t-81.5 10h-88l-37 113h178q65 0 96 -10.5t53 -55.5q23 -36 23 -96q0 -51 -23.5 -92
t-56.5 -51q-27 -8 -96 -8h-37l-18 -48h-119z" />
    <glyph glyph-name="uni1EBC" unicode="&#x1ebc;" horiz-adv-x="1189" 
d="M114 1468h1102l-158 -288h-594v-328h717v-287h-717v-276h717v-289h-1067v1468zM971 1761q-13 -57 -35 -106q-25 -47 -67 -70.5t-74 -23.5q-29 0 -91 24l-90 33q-28 6 -37 6q-24 0 -39.5 -12.5t-27.5 -55.5h-109q13 64 33 111q25 47 70 70.5t80 23.5q18 0 30.5 -1t25.5 -5
t29.5 -10t39.5 -16l28 -11q10 -4 29.5 -11t36.5 -7q16 0 27.5 8t18.5 18.5t11 20.5t8 14h103z" />
    <glyph glyph-name="uni1EBD" unicode="&#x1ebd;" horiz-adv-x="1146" 
d="M1138 434h-701q43 -108 105 -133q63 -22 203 -22h380l-153 -279h-338h-70q-178 0 -260 45q-84 47 -131 121q-49 78 -70.5 182.5t-21.5 214.5q0 49 2 89t10 78t21.5 77t38.5 86q47 92 168 158q118 63 243 63q11 2 29 2h29q61 0 123.5 -9t119 -30.5t103.5 -54.5t80 -78
q65 -92 80.5 -210t15.5 -283zM710 834q-13 8 -38.5 12t-49.5 4q-82 8 -134.5 -44t-58.5 -136h369q-10 75 -26.5 108t-61.5 56zM944 1425q-12 -57 -34 -106q-25 -47 -67 -70.5t-75 -23.5q-28 0 -90 24l-90 33q-29 6 -37 6q-24 0 -39.5 -12t-27.5 -55h-109q12 63 33 110
q24 47 69 70.5t80 23.5q19 0 31 -1t25.5 -5t30 -10t38.5 -16l29 -11q10 -4 29.5 -11t35.5 -7q17 0 28 8t18.5 18.5t11.5 20.5t8 14h102z" />
    <glyph glyph-name="uni1EBE" unicode="&#x1ebe;" horiz-adv-x="1189" 
d="M114 1468h1102l-158 -288h-594v-328h717v-287h-717v-276h717v-289h-1067v1468zM527 1782h235l176 -236h-200l-94 127l-99 -127h-198zM908 2066l-193 -222h-141l113 228h221v-6z" />
    <glyph glyph-name="uni1EBF" unicode="&#x1ebf;" horiz-adv-x="1146" 
d="M1138 434h-701q43 -108 105 -133q63 -22 203 -22h380l-153 -279h-338h-70q-178 0 -260 45q-84 47 -131 121q-49 78 -70.5 182.5t-21.5 214.5q0 49 2 89t10 78t21.5 77t38.5 86q47 92 168 158q118 63 243 63q11 2 29 2h29q61 0 123.5 -9t119 -30.5t103.5 -54.5t80 -78
q65 -92 80.5 -210t15.5 -283zM710 834q-13 8 -38.5 12t-49.5 4q-82 8 -134.5 -44t-58.5 -136h369q-10 75 -26.5 108t-61.5 56zM513 1430h235l176 -236h-200l-95 127l-98 -127h-199zM683 1722h217l-189 -227h-145z" />
    <glyph glyph-name="uni1EC0" unicode="&#x1ec0;" horiz-adv-x="1189" 
d="M114 1468h1102l-158 -288h-594v-328h717v-287h-717v-276h717v-289h-1067v1468zM527 1782h235l176 -236h-200l-94 127l-99 -127h-198zM380 2072h221l113 -228h-141l-193 222v6z" />
    <glyph glyph-name="uni1EC1" unicode="&#x1ec1;" horiz-adv-x="1146" 
d="M1138 434h-701q43 -108 105 -133q63 -22 203 -22h380l-153 -279h-338h-70q-178 0 -260 45q-84 47 -131 121q-49 78 -70.5 182.5t-21.5 214.5q0 49 2 89t10 78t21.5 77t38.5 86q47 92 168 158q118 63 243 63q11 2 29 2h29q61 0 123.5 -9t119 -30.5t103.5 -54.5t80 -78
q65 -92 80.5 -210t15.5 -283zM710 834q-13 8 -38.5 12t-49.5 4q-82 8 -134.5 -44t-58.5 -136h369q-10 75 -26.5 108t-61.5 56zM513 1430h235l176 -236h-200l-95 127l-98 -127h-199zM726 1495h-146l-188 227h217z" />
    <glyph glyph-name="uni1EC2" unicode="&#x1ec2;" horiz-adv-x="1189" 
d="M114 1468h1102l-158 -288h-594v-328h717v-287h-717v-276h717v-289h-1067v1468zM527 1782h235l176 -236h-200l-94 127l-99 -127h-198zM615 1989h116q35 0 54.5 9t19.5 30q0 28 -22.5 38.5t-81.5 10.5h-88l-37 112h178q65 0 96 -10t53 -55q23 -37 23 -96q0 -52 -23.5 -93
t-56.5 -51q-27 -8 -96 -8h-37l-18 -47h-119z" />
    <glyph glyph-name="uni1EC3" unicode="&#x1ec3;" horiz-adv-x="1146" 
d="M1138 434h-701q43 -108 105 -133q63 -22 203 -22h380l-153 -279h-338h-70q-178 0 -260 45q-84 47 -131 121q-49 78 -70.5 182.5t-21.5 214.5q0 49 2 89t10 78t21.5 77t38.5 86q47 92 168 158q118 63 243 63q11 2 29 2h29q61 0 123.5 -9t119 -30.5t103.5 -54.5t80 -78
q65 -92 80.5 -210t15.5 -283zM710 834q-13 8 -38.5 12t-49.5 4q-82 8 -134.5 -44t-58.5 -136h369q-10 75 -26.5 108t-61.5 56zM513 1430h235l176 -236h-200l-95 127l-98 -127h-199zM599 1640h117q35 0 54.5 9.5t19.5 29.5q0 29 -22.5 39.5t-82.5 10.5h-88l-36 112h178
q65 0 96 -10t53 -55q23 -37 23 -97q0 -51 -23.5 -92t-56.5 -51q-27 -8 -96 -8h-37l-19 -47h-118z" />
    <glyph glyph-name="uni1EC4" unicode="&#x1ec4;" horiz-adv-x="1189" 
d="M114 1468h1102l-158 -288h-594v-328h717v-287h-717v-276h717v-289h-1067v1468zM990 2048q-12 -57 -35 -106q-24 -48 -66 -71.5t-75 -23.5q-29 0 -90 25l-90 33q-29 6 -37 6q-25 0 -40.5 -12.5t-27.5 -55.5h-108q12 64 32 111q25 47 70 70.5t80 23.5q18 0 30.5 -1t26 -5
t29.5 -10.5t39 -16.5l29 -10q10 -4 29.5 -11t35.5 -7t27.5 8t18.5 18t11.5 20.5t8.5 14.5h102zM527 1782h235l176 -236h-200l-94 127l-99 -127h-198z" />
    <glyph glyph-name="uni1EC5" unicode="&#x1ec5;" horiz-adv-x="1146" 
d="M1138 434h-701q43 -108 105 -133q63 -22 203 -22h380l-153 -279h-338h-70q-178 0 -260 45q-84 47 -131 121q-49 78 -70.5 182.5t-21.5 214.5q0 49 2 89t10 78t21.5 77t38.5 86q47 92 168 158q118 63 243 63q11 2 29 2h29q61 0 123.5 -9t119 -30.5t103.5 -54.5t80 -78
q65 -92 80.5 -210t15.5 -283zM710 834q-13 8 -38.5 12t-49.5 4q-82 8 -134.5 -44t-58.5 -136h369q-10 75 -26.5 108t-61.5 56zM513 1430h235l176 -236h-200l-95 127l-98 -127h-199zM1000 1692q-12 -58 -35 -107q-24 -47 -66 -70.5t-75 -23.5q-29 0 -90 25l-90 32
q-29 6 -37 6q-25 0 -40 -12t-28 -55h-108q12 63 32 110q25 48 70 71.5t80 23.5q18 0 30.5 -1t26 -5.5t29.5 -10.5t39 -16l29 -10q10 -4 29.5 -11.5t35.5 -7.5t27.5 8.5t18.5 18.5t11.5 20.5t8.5 14.5h102z" />
    <glyph glyph-name="uni1EC6" unicode="&#x1ec6;" horiz-adv-x="1189" 
d="M114 1468h1102l-158 -288h-594v-328h717v-287h-717v-276h717v-289h-1067v1468zM527 1782h235l176 -236h-200l-94 127l-99 -127h-198zM830 -119v-162h-353v162h353z" />
    <glyph glyph-name="uni1EC7" unicode="&#x1ec7;" horiz-adv-x="1146" 
d="M1138 434h-701q43 -108 105 -133q63 -22 203 -22h380l-153 -279h-338h-70q-178 0 -260 45q-84 47 -131 121q-49 78 -70.5 182.5t-21.5 214.5q0 49 2 89t10 78t21.5 77t38.5 86q47 92 168 158q118 63 243 63q11 2 29 2h29q61 0 123.5 -9t119 -30.5t103.5 -54.5t80 -78
q65 -92 80.5 -210t15.5 -283zM710 834q-13 8 -38.5 12t-49.5 4q-82 8 -134.5 -44t-58.5 -136h369q-10 75 -26.5 108t-61.5 56zM513 1430h235l176 -236h-200l-95 127l-98 -127h-199zM790 -119v-162h-353v162h353z" />
    <glyph glyph-name="uni1EC8" unicode="&#x1ec8;" horiz-adv-x="505" 
d="M468 1468v-1468h-352v1468h352zM263 1702h117q35 0 54.5 9t19.5 30q0 28 -22.5 38.5t-82.5 10.5h-88l-36 113h178q65 0 96 -10.5t53 -55.5q23 -37 23 -96q0 -51 -23.5 -92t-56.5 -52q-27 -8 -96 -8h-37l-19 -47h-118z" />
    <glyph glyph-name="uni1EC9" unicode="&#x1ec9;" horiz-adv-x="514" 
d="M116 1108h352v-1108h-352v1108zM284 1374h117q34 0 53.5 9.5t19.5 29.5q0 29 -22.5 39t-81.5 10h-88l-37 113h178q66 0 96.5 -10.5t53.5 -55.5q22 -36 22 -96q0 -51 -23.5 -92t-56.5 -51q-26 -8 -96 -8h-37l-18 -48h-119z" />
    <glyph glyph-name="uni1ECA" unicode="&#x1eca;" horiz-adv-x="505" 
d="M468 1468v-1468h-352v1468h352zM468 -119v-162h-352v162h352z" />
    <glyph glyph-name="uni1ECB" unicode="&#x1ecb;" horiz-adv-x="514" 
d="M116 1497h352v-289h-352v289zM116 1108h352v-1108h-352v1108zM468 -119v-162h-352v162h352z" />
    <glyph glyph-name="uni1ECC" unicode="&#x1ecc;" 
d="M837 1479q74 0 152 -9.5t151.5 -32t137 -61.5t110.5 -98q86 -107 124 -257.5t38 -305.5q0 -187 -48 -337.5t-134 -236.5q-80 -84 -180 -112q-95 -25 -181 -33t-165 -8q-168 0 -310.5 32.5t-240.5 118.5q-97 86 -148 258t-51 355v39.5t2 29.5l25 162q20 135 106 258
q55 80 127 127t152 71.5t165 32t168 7.5zM450 762q0 -129 31 -230q31 -104 124 -163.5t218 -59.5q92 0 178 40t131 118q45 74 52 139q8 64 10 81.5t2 31.5q0 110 -30 208.5t-103 159.5q-47 33 -119 51.5t-141 18.5q-68 0 -160 -31q-92 -30 -142.5 -128.5t-50.5 -235.5z
M997 -119v-162h-352v162h352z" />
    <glyph glyph-name="uni1ECD" unicode="&#x1ecd;" horiz-adv-x="1269" 
d="M651 1108q64 0 135.5 -4t138 -18.5t125 -44t99.5 -80.5q63 -82 86.5 -183.5t23.5 -220.5q0 -174 -38.5 -289.5t-98.5 -167.5q-59 -51 -171.5 -81.5t-272.5 -30.5q-148 0 -262.5 26.5t-188.5 91.5q-69 68 -104 201q-33 129 -33 275q0 36 2 62t4 67q21 127 74 211
q39 59 97.5 96t124 56.5t133 26.5t126.5 7zM465 657q-10 -51 -10 -122q0 -66 10 -123.5t33.5 -99.5t62.5 -64.5t94 -18.5q51 0 101 19q61 26 84.5 70t31.5 94q6 24 9.5 39.5t4.5 28t2 24.5t1 31q0 92 -19.5 159.5t-56.5 96.5q-35 30 -72 39.5t-73 9.5q-86 0 -142.5 -47.5
t-60.5 -135.5zM848 -119v-162h-352v162h352z" />
    <glyph glyph-name="uni1ECE" unicode="&#x1ece;" 
d="M837 1479q74 0 152 -9.5t151.5 -32t137 -61.5t110.5 -98q86 -107 124 -257.5t38 -305.5q0 -187 -48 -337.5t-134 -236.5q-80 -84 -180 -112q-95 -25 -181 -33t-165 -8q-168 0 -310.5 32.5t-240.5 118.5q-97 86 -148 258t-51 355v39.5t2 29.5l25 162q20 135 106 258
q55 80 127 127t152 71.5t165 32t168 7.5zM450 762q0 -129 31 -230q31 -104 124 -163.5t218 -59.5q92 0 178 40t131 118q45 74 52 139q8 64 10 81.5t2 31.5q0 110 -30 208.5t-103 159.5q-47 33 -119 51.5t-141 18.5q-68 0 -160 -31q-92 -30 -142.5 -128.5t-50.5 -235.5z
M802 1702h116q35 0 54.5 9t19.5 30q0 28 -22.5 38.5t-81.5 10.5h-88l-37 113h178q65 0 96 -10.5t53 -55.5q23 -37 23 -96q0 -51 -23.5 -92t-56.5 -52q-27 -8 -96 -8h-37l-18 -47h-119z" />
    <glyph glyph-name="uni1ECF" unicode="&#x1ecf;" horiz-adv-x="1269" 
d="M651 1108q64 0 135.5 -4t138 -18.5t125 -44t99.5 -80.5q63 -82 86.5 -183.5t23.5 -220.5q0 -174 -38.5 -289.5t-98.5 -167.5q-59 -51 -171.5 -81.5t-272.5 -30.5q-148 0 -262.5 26.5t-188.5 91.5q-69 68 -104 201q-33 129 -33 275q0 36 2 62t4 67q21 127 74 211
q39 59 97.5 96t124 56.5t133 26.5t126.5 7zM465 657q-10 -51 -10 -122q0 -66 10 -123.5t33.5 -99.5t62.5 -64.5t94 -18.5q51 0 101 19q61 26 84.5 70t31.5 94q6 24 9.5 39.5t4.5 28t2 24.5t1 31q0 92 -19.5 159.5t-56.5 96.5q-35 30 -72 39.5t-73 9.5q-86 0 -142.5 -47.5
t-60.5 -135.5zM601 1358h116q35 0 54.5 9.5t19.5 29.5q0 29 -22.5 39t-81.5 10h-89l-36 113h178q65 0 96 -10.5t53 -55.5q23 -36 23 -96q0 -51 -23.5 -92t-56.5 -51q-27 -8 -96 -8h-37l-19 -48h-118z" />
    <glyph glyph-name="uni1ED0" unicode="&#x1ed0;" 
d="M705 1782h236l176 -236h-201l-94 127l-98 -127h-199zM837 1479q74 0 152 -9.5t151.5 -32t137 -61.5t110.5 -98q86 -107 124 -257.5t38 -305.5q0 -187 -48 -337.5t-134 -236.5q-80 -84 -180 -112q-95 -25 -181 -33t-165 -8q-168 0 -310.5 32.5t-240.5 118.5
q-97 86 -148 258t-51 355v39.5t2 29.5l25 162q20 135 106 258q55 80 127 127t152 71.5t165 32t168 7.5zM450 762q0 -129 31 -230q31 -104 124 -163.5t218 -59.5q92 0 178 40t131 118q45 74 52 139q8 64 10 81.5t2 31.5q0 110 -30 208.5t-103 159.5q-47 33 -119 51.5
t-141 18.5q-68 0 -160 -31q-92 -30 -142.5 -128.5t-50.5 -235.5zM1081 2066l-193 -222h-141l113 228h221v-6z" />
    <glyph glyph-name="uni1ED1" unicode="&#x1ed1;" horiz-adv-x="1269" 
d="M559 1430h236l176 -236h-201l-94 127l-99 -127h-198zM651 1108q64 0 135.5 -4t138 -18.5t125 -44t99.5 -80.5q63 -82 86.5 -183.5t23.5 -220.5q0 -174 -38.5 -289.5t-98.5 -167.5q-59 -51 -171.5 -81.5t-272.5 -30.5q-148 0 -262.5 26.5t-188.5 91.5q-69 68 -104 201
q-33 129 -33 275q0 36 2 62t4 67q21 127 74 211q39 59 97.5 96t124 56.5t133 26.5t126.5 7zM465 657q-10 -51 -10 -122q0 -66 10 -123.5t33.5 -99.5t62.5 -64.5t94 -18.5q51 0 101 19q61 26 84.5 70t31.5 94q6 24 9.5 39.5t4.5 28t2 24.5t1 31q0 92 -19.5 159.5t-56.5 96.5
q-35 30 -72 39.5t-73 9.5q-86 0 -142.5 -47.5t-60.5 -135.5zM682 1722h218l-189 -227h-145z" />
    <glyph glyph-name="uni1ED2" unicode="&#x1ed2;" 
d="M705 1782h236l176 -236h-201l-94 127l-98 -127h-199zM837 1479q74 0 152 -9.5t151.5 -32t137 -61.5t110.5 -98q86 -107 124 -257.5t38 -305.5q0 -187 -48 -337.5t-134 -236.5q-80 -84 -180 -112q-95 -25 -181 -33t-165 -8q-168 0 -310.5 32.5t-240.5 118.5
q-97 86 -148 258t-51 355v39.5t2 29.5l25 162q20 135 106 258q55 80 127 127t152 71.5t165 32t168 7.5zM450 762q0 -129 31 -230q31 -104 124 -163.5t218 -59.5q92 0 178 40t131 118q45 74 52 139q8 64 10 81.5t2 31.5q0 110 -30 208.5t-103 159.5q-47 33 -119 51.5
t-141 18.5q-68 0 -160 -31q-92 -30 -142.5 -128.5t-50.5 -235.5zM573 2072h221l113 -228h-142l-192 222v6z" />
    <glyph glyph-name="uni1ED3" unicode="&#x1ed3;" horiz-adv-x="1269" 
d="M559 1430h236l176 -236h-201l-94 127l-99 -127h-198zM651 1108q64 0 135.5 -4t138 -18.5t125 -44t99.5 -80.5q63 -82 86.5 -183.5t23.5 -220.5q0 -174 -38.5 -289.5t-98.5 -167.5q-59 -51 -171.5 -81.5t-272.5 -30.5q-148 0 -262.5 26.5t-188.5 91.5q-69 68 -104 201
q-33 129 -33 275q0 36 2 62t4 67q21 127 74 211q39 59 97.5 96t124 56.5t133 26.5t126.5 7zM465 657q-10 -51 -10 -122q0 -66 10 -123.5t33.5 -99.5t62.5 -64.5t94 -18.5q51 0 101 19q61 26 84.5 70t31.5 94q6 24 9.5 39.5t4.5 28t2 24.5t1 31q0 92 -19.5 159.5t-56.5 96.5
q-35 30 -72 39.5t-73 9.5q-86 0 -142.5 -47.5t-60.5 -135.5zM755 1495h-146l-188 227h217z" />
    <glyph glyph-name="uni1ED4" unicode="&#x1ed4;" 
d="M705 1782h236l176 -236h-201l-94 127l-98 -127h-199zM837 1479q74 0 152 -9.5t151.5 -32t137 -61.5t110.5 -98q86 -107 124 -257.5t38 -305.5q0 -187 -48 -337.5t-134 -236.5q-80 -84 -180 -112q-95 -25 -181 -33t-165 -8q-168 0 -310.5 32.5t-240.5 118.5
q-97 86 -148 258t-51 355v39.5t2 29.5l25 162q20 135 106 258q55 80 127 127t152 71.5t165 32t168 7.5zM450 762q0 -129 31 -230q31 -104 124 -163.5t218 -59.5q92 0 178 40t131 118q45 74 52 139q8 64 10 81.5t2 31.5q0 110 -30 208.5t-103 159.5q-47 33 -119 51.5
t-141 18.5q-68 0 -160 -31q-92 -30 -142.5 -128.5t-50.5 -235.5zM759 1989h117q35 0 54.5 9t19.5 30q0 28 -22.5 38.5t-81.5 10.5h-89l-36 112h178q65 0 96 -10t53 -55q23 -37 23 -96q0 -52 -23.5 -93t-56.5 -51q-27 -8 -96 -8h-37l-19 -47h-118z" />
    <glyph glyph-name="uni1ED5" unicode="&#x1ed5;" horiz-adv-x="1269" 
d="M559 1430h236l176 -236h-201l-94 127l-99 -127h-198zM651 1108q64 0 135.5 -4t138 -18.5t125 -44t99.5 -80.5q63 -82 86.5 -183.5t23.5 -220.5q0 -174 -38.5 -289.5t-98.5 -167.5q-59 -51 -171.5 -81.5t-272.5 -30.5q-148 0 -262.5 26.5t-188.5 91.5q-69 68 -104 201
q-33 129 -33 275q0 36 2 62t4 67q21 127 74 211q39 59 97.5 96t124 56.5t133 26.5t126.5 7zM465 657q-10 -51 -10 -122q0 -66 10 -123.5t33.5 -99.5t62.5 -64.5t94 -18.5q51 0 101 19q61 26 84.5 70t31.5 94q6 24 9.5 39.5t4.5 28t2 24.5t1 31q0 92 -19.5 159.5t-56.5 96.5
q-35 30 -72 39.5t-73 9.5q-86 0 -142.5 -47.5t-60.5 -135.5zM599 1640h117q35 0 54.5 9.5t19.5 29.5q0 29 -22.5 39.5t-82.5 10.5h-88l-37 112h179q65 0 96 -10t53 -55q23 -37 23 -97q0 -51 -23.5 -92t-56.5 -51q-27 -8 -97 -8h-36l-19 -47h-119z" />
    <glyph glyph-name="uni1ED6" unicode="&#x1ed6;" 
d="M705 1782h236l176 -236h-201l-94 127l-98 -127h-199zM837 1479q74 0 152 -9.5t151.5 -32t137 -61.5t110.5 -98q86 -107 124 -257.5t38 -305.5q0 -187 -48 -337.5t-134 -236.5q-80 -84 -180 -112q-95 -25 -181 -33t-165 -8q-168 0 -310.5 32.5t-240.5 118.5
q-97 86 -148 258t-51 355v39.5t2 29.5l25 162q20 135 106 258q55 80 127 127t152 71.5t165 32t168 7.5zM450 762q0 -129 31 -230q31 -104 124 -163.5t218 -59.5q92 0 178 40t131 118q45 74 52 139q8 64 10 81.5t2 31.5q0 110 -30 208.5t-103 159.5q-47 33 -119 51.5
t-141 18.5q-68 0 -160 -31q-92 -30 -142.5 -128.5t-50.5 -235.5zM1164 2048q-12 -57 -35 -106q-25 -48 -67 -71.5t-74 -23.5q-29 0 -90 25l-91 33q-28 6 -36 6q-25 0 -40.5 -12.5t-27.5 -55.5h-109q13 64 33 111q25 47 70 70.5t80 23.5q18 0 30.5 -1t25.5 -5t29.5 -10.5
t39.5 -16.5l28 -10q11 -4 30.5 -11t35.5 -7t27.5 8t18.5 18t11 20.5t8 14.5h103z" />
    <glyph glyph-name="uni1ED7" unicode="&#x1ed7;" horiz-adv-x="1269" 
d="M559 1430h236l176 -236h-201l-94 127l-99 -127h-198zM651 1108q64 0 135.5 -4t138 -18.5t125 -44t99.5 -80.5q63 -82 86.5 -183.5t23.5 -220.5q0 -174 -38.5 -289.5t-98.5 -167.5q-59 -51 -171.5 -81.5t-272.5 -30.5q-148 0 -262.5 26.5t-188.5 91.5q-69 68 -104 201
q-33 129 -33 275q0 36 2 62t4 67q21 127 74 211q39 59 97.5 96t124 56.5t133 26.5t126.5 7zM465 657q-10 -51 -10 -122q0 -66 10 -123.5t33.5 -99.5t62.5 -64.5t94 -18.5q51 0 101 19q61 26 84.5 70t31.5 94q6 24 9.5 39.5t4.5 28t2 24.5t1 31q0 92 -19.5 159.5t-56.5 96.5
q-35 30 -72 39.5t-73 9.5q-86 0 -142.5 -47.5t-60.5 -135.5zM1000 1692q-12 -58 -35 -107q-24 -47 -66 -70.5t-75 -23.5q-29 0 -90 25l-90 32q-29 6 -37 6q-25 0 -40.5 -12t-27.5 -55h-108q12 63 32 110q25 48 70 71.5t80 23.5q18 0 30.5 -1t25.5 -5.5t29.5 -10.5t39.5 -16
l28 -10q11 -4 30.5 -11.5t35.5 -7.5t27.5 8.5t18.5 18.5t11 20.5t9 14.5h102z" />
    <glyph glyph-name="uni1ED8" unicode="&#x1ed8;" 
d="M705 1782h236l176 -236h-201l-94 127l-98 -127h-199zM837 1479q74 0 152 -9.5t151.5 -32t137 -61.5t110.5 -98q86 -107 124 -257.5t38 -305.5q0 -187 -48 -337.5t-134 -236.5q-80 -84 -180 -112q-95 -25 -181 -33t-165 -8q-168 0 -310.5 32.5t-240.5 118.5
q-97 86 -148 258t-51 355v39.5t2 29.5l25 162q20 135 106 258q55 80 127 127t152 71.5t165 32t168 7.5zM450 762q0 -129 31 -230q31 -104 124 -163.5t218 -59.5q92 0 178 40t131 118q45 74 52 139q8 64 10 81.5t2 31.5q0 110 -30 208.5t-103 159.5q-47 33 -119 51.5
t-141 18.5q-68 0 -160 -31q-92 -30 -142.5 -128.5t-50.5 -235.5zM997 -119v-162h-352v162h352z" />
    <glyph glyph-name="uni1ED9" unicode="&#x1ed9;" horiz-adv-x="1269" 
d="M559 1430h236l176 -236h-201l-94 127l-99 -127h-198zM651 1108q64 0 135.5 -4t138 -18.5t125 -44t99.5 -80.5q63 -82 86.5 -183.5t23.5 -220.5q0 -174 -38.5 -289.5t-98.5 -167.5q-59 -51 -171.5 -81.5t-272.5 -30.5q-148 0 -262.5 26.5t-188.5 91.5q-69 68 -104 201
q-33 129 -33 275q0 36 2 62t4 67q21 127 74 211q39 59 97.5 96t124 56.5t133 26.5t126.5 7zM465 657q-10 -51 -10 -122q0 -66 10 -123.5t33.5 -99.5t62.5 -64.5t94 -18.5q51 0 101 19q61 26 84.5 70t31.5 94q6 24 9.5 39.5t4.5 28t2 24.5t1 31q0 92 -19.5 159.5t-56.5 96.5
q-35 30 -72 39.5t-73 9.5q-86 0 -142.5 -47.5t-60.5 -135.5zM848 -119v-162h-352v162h352z" />
    <glyph glyph-name="uni1EDA" unicode="&#x1eda;" 
d="M450 762q0 -129 31 -230q31 -104 124 -163.5t218 -59.5q92 0 178 40t131 118q45 74 51 139q9 64 11 81.5t2 31.5q0 110 -30 208.5t-103 159.5q-48 33 -119.5 51.5t-141.5 18.5q-67 0 -159 -31q-92 -30 -142.5 -128.5t-50.5 -235.5zM1074 1796l-193 -221h-141l113 227h221
v-6zM837 1479q74 0 152 -9.5t151.5 -32t137 -61.5t110.5 -98q23 0 34 16.5t15.5 42t4.5 55v54.5l135 -51q0 -47 -10.5 -95.5t-44.5 -76.5q-21 -17 -38.5 -23t-39.5 -10q55 -103 80.5 -225.5t25.5 -249.5q0 -187 -48 -337.5t-134 -236.5q-80 -84 -180 -112q-95 -25 -181 -33
t-165 -8q-168 0 -310.5 32.5t-240.5 118.5q-97 86 -148 258t-51 355v39.5t2 29.5l25 162q20 135 106 258q55 80 127 127t152 71.5t165 32t168 7.5z" />
    <glyph glyph-name="uni1EDB" unicode="&#x1edb;" horiz-adv-x="1269" 
d="M465 657q-10 -51 -10 -122q0 -66 10 -123.5t33.5 -99.5t62.5 -64.5t94 -18.5q51 0 101 19q61 26 84.5 70t31.5 94q6 24 9.5 39.5t4.5 28t2 24.5t1 31q0 92 -19.5 159.5t-56.5 96.5q-35 30 -72 39.5t-73 9.5q-86 0 -142.5 -47.5t-60.5 -135.5zM891 1419l-193 -221h-141
l113 228h221v-7zM651 1108q64 0 135.5 -4t138 -18.5t125 -44t99.5 -80.5l6 -11q18 4 26.5 22.5t12.5 43t4 52.5v50l135 -51q0 -47 -10 -95t-45 -77q-33 -27 -72 -31q29 -67 41 -144t12 -163q0 -174 -38.5 -289.5t-98.5 -167.5q-59 -51 -171.5 -81.5t-272.5 -30.5
q-148 0 -262.5 26.5t-188.5 91.5q-69 68 -104 201q-33 129 -33 275q0 36 2 62t4 67q21 127 74 211q39 59 97.5 96t124 56.5t133 26.5t126.5 7z" />
    <glyph glyph-name="uni1EDC" unicode="&#x1edc;" 
d="M450 762q0 -129 31 -230q31 -104 124 -163.5t218 -59.5q92 0 178 40t131 118q45 74 51 139q9 64 11 81.5t2 31.5q0 110 -30 208.5t-103 159.5q-48 33 -119.5 51.5t-141.5 18.5q-67 0 -159 -31q-92 -30 -142.5 -128.5t-50.5 -235.5zM615 1802h221l113 -227h-141l-193 221
v6zM837 1479q74 0 152 -9.5t151.5 -32t137 -61.5t110.5 -98q23 0 34 16.5t15.5 42t4.5 55v54.5l135 -51q0 -47 -10.5 -95.5t-44.5 -76.5q-21 -17 -38.5 -23t-39.5 -10q55 -103 80.5 -225.5t25.5 -249.5q0 -187 -48 -337.5t-134 -236.5q-80 -84 -180 -112q-95 -25 -181 -33
t-165 -8q-168 0 -310.5 32.5t-240.5 118.5q-97 86 -148 258t-51 355v39.5t2 29.5l25 162q20 135 106 258q55 80 127 127t152 71.5t165 32t168 7.5z" />
    <glyph glyph-name="uni1EDD" unicode="&#x1edd;" horiz-adv-x="1269" 
d="M465 657q-10 -51 -10 -122q0 -66 10 -123.5t33.5 -99.5t62.5 -64.5t94 -18.5q51 0 101 19q61 26 84.5 70t31.5 94q6 24 9.5 39.5t4.5 28t2 24.5t1 31q0 92 -19.5 159.5t-56.5 96.5q-35 30 -72 39.5t-73 9.5q-86 0 -142.5 -47.5t-60.5 -135.5zM441 1426h221l113 -228h-141
l-193 221v7zM651 1108q64 0 135.5 -4t138 -18.5t125 -44t99.5 -80.5l6 -11q18 4 26.5 22.5t12.5 43t4 52.5v50l135 -51q0 -47 -10 -95t-45 -77q-33 -27 -72 -31q29 -67 41 -144t12 -163q0 -174 -38.5 -289.5t-98.5 -167.5q-59 -51 -171.5 -81.5t-272.5 -30.5
q-148 0 -262.5 26.5t-188.5 91.5q-69 68 -104 201q-33 129 -33 275q0 36 2 62t4 67q21 127 74 211q39 59 97.5 96t124 56.5t133 26.5t126.5 7z" />
    <glyph glyph-name="uni1EDE" unicode="&#x1ede;" 
d="M450 762q0 -129 31 -230q31 -104 124 -163.5t218 -59.5q92 0 178 40t131 118q45 74 51 139q9 64 11 81.5t2 31.5q0 110 -30 208.5t-103 159.5q-48 33 -119.5 51.5t-141.5 18.5q-67 0 -159 -31q-92 -30 -142.5 -128.5t-50.5 -235.5zM802 1702h116q35 0 54.5 9t19.5 30
q0 28 -22.5 38.5t-81.5 10.5h-89l-36 113h178q65 0 96 -10.5t53 -55.5q23 -37 23 -96q0 -51 -23.5 -92t-56.5 -52q-27 -8 -96 -8h-37l-19 -47h-118zM837 1479q74 0 152 -9.5t151.5 -32t137 -61.5t110.5 -98q23 0 34 16.5t15.5 42t4.5 55v54.5l135 -51q0 -47 -10.5 -95.5
t-44.5 -76.5q-21 -17 -38.5 -23t-39.5 -10q55 -103 80.5 -225.5t25.5 -249.5q0 -187 -48 -337.5t-134 -236.5q-80 -84 -180 -112q-95 -25 -181 -33t-165 -8q-168 0 -310.5 32.5t-240.5 118.5q-97 86 -148 258t-51 355v39.5t2 29.5l25 162q20 135 106 258q55 80 127 127
t152 71.5t165 32t168 7.5z" />
    <glyph glyph-name="uni1EDF" unicode="&#x1edf;" horiz-adv-x="1269" 
d="M465 657q-10 -51 -10 -122q0 -66 10 -123.5t33.5 -99.5t62.5 -64.5t94 -18.5q51 0 101 19q61 26 84.5 70t31.5 94q6 24 9.5 39.5t4.5 28t2 24.5t1 31q0 92 -19.5 159.5t-56.5 96.5q-35 30 -72 39.5t-73 9.5q-86 0 -142.5 -47.5t-60.5 -135.5zM601 1358h116q35 0 54.5 9.5
t19.5 29.5q0 29 -22.5 39t-81.5 10h-89l-36 113h178q65 0 96 -10.5t53 -55.5q23 -36 23 -96q0 -51 -23.5 -92t-56.5 -51q-27 -8 -96 -8h-37l-19 -48h-118zM651 1108q64 0 135.5 -4t138 -18.5t125 -44t99.5 -80.5l6 -11q18 4 26.5 22.5t12.5 43t4 52.5v50l135 -51
q0 -47 -10 -95t-45 -77q-33 -27 -72 -31q29 -67 41 -144t12 -163q0 -174 -38.5 -289.5t-98.5 -167.5q-59 -51 -171.5 -81.5t-272.5 -30.5q-148 0 -262.5 26.5t-188.5 91.5q-69 68 -104 201q-33 129 -33 275q0 36 2 62t4 67q21 127 74 211q39 59 97.5 96t124 56.5t133 26.5
t126.5 7z" />
    <glyph glyph-name="uni1EE0" unicode="&#x1ee0;" 
d="M450 762q0 -129 31 -230q31 -104 124 -163.5t218 -59.5q92 0 178 40t131 118q45 74 51 139q9 64 11 81.5t2 31.5q0 110 -30 208.5t-103 159.5q-48 33 -119.5 51.5t-141.5 18.5q-67 0 -159 -31q-92 -30 -142.5 -128.5t-50.5 -235.5zM1106 1761q-13 -57 -35 -106
q-25 -47 -67 -70.5t-75 -23.5q-28 0 -90 24l-90 33q-28 6 -37 6q-24 0 -39.5 -12.5t-27.5 -55.5h-109q13 64 33 111q25 47 70 70.5t80 23.5q18 0 30.5 -1t25.5 -5t29.5 -10t38.5 -16l29 -11q10 -4 29.5 -11t36.5 -7q16 0 27.5 8t18.5 18.5t11 20.5t8 14h103zM837 1479
q74 0 152 -9.5t151.5 -32t137 -61.5t110.5 -98q23 0 34 16.5t15.5 42t4.5 55v54.5l135 -51q0 -47 -10.5 -95.5t-44.5 -76.5q-21 -17 -38.5 -23t-39.5 -10q55 -103 80.5 -225.5t25.5 -249.5q0 -187 -48 -337.5t-134 -236.5q-80 -84 -180 -112q-95 -25 -181 -33t-165 -8
q-168 0 -310.5 32.5t-240.5 118.5q-97 86 -148 258t-51 355v39.5t2 29.5l25 162q20 135 106 258q55 80 127 127t152 71.5t165 32t168 7.5z" />
    <glyph glyph-name="uni1EE1" unicode="&#x1ee1;" horiz-adv-x="1269" 
d="M465 657q-10 -51 -10 -122q0 -66 10 -123.5t33.5 -99.5t62.5 -64.5t94 -18.5q51 0 101 19q61 26 84.5 70t31.5 94q6 24 9.5 39.5t4.5 28t2 24.5t1 31q0 92 -19.5 159.5t-56.5 96.5q-35 30 -72 39.5t-73 9.5q-86 0 -142.5 -47.5t-60.5 -135.5zM983 1425q-12 -57 -35 -106
q-24 -47 -66 -70.5t-75 -23.5q-29 0 -90 24l-90 33q-29 6 -37 6q-25 0 -40 -12t-28 -55h-108q12 63 33 110q24 47 69 70.5t80 23.5q19 0 31 -1t25.5 -5t30 -10t38.5 -16l29 -11q10 -4 29.5 -11t35.5 -7q17 0 28 8t18.5 18.5t11.5 20.5t8 14h102zM651 1108q64 0 135.5 -4
t138 -18.5t125 -44t99.5 -80.5l6 -11q18 4 26.5 22.5t12.5 43t4 52.5v50l135 -51q0 -47 -10 -95t-45 -77q-33 -27 -72 -31q29 -67 41 -144t12 -163q0 -174 -38.5 -289.5t-98.5 -167.5q-59 -51 -171.5 -81.5t-272.5 -30.5q-148 0 -262.5 26.5t-188.5 91.5q-69 68 -104 201
q-33 129 -33 275q0 36 2 62t4 67q21 127 74 211q39 59 97.5 96t124 56.5t133 26.5t126.5 7z" />
    <glyph glyph-name="uni1EE2" unicode="&#x1ee2;" 
d="M450 762q0 -129 31 -230q31 -104 124 -163.5t218 -59.5q92 0 178 40t131 118q45 74 51 139q9 64 11 81.5t2 31.5q0 110 -30 208.5t-103 159.5q-48 33 -119.5 51.5t-141.5 18.5q-67 0 -159 -31q-92 -30 -142.5 -128.5t-50.5 -235.5zM997 -119v-162h-352v162h352zM837 1479
q74 0 152 -9.5t151.5 -32t137 -61.5t110.5 -98q23 0 34 16.5t15.5 42t4.5 55v54.5l135 -51q0 -47 -10.5 -95.5t-44.5 -76.5q-21 -17 -38.5 -23t-39.5 -10q55 -103 80.5 -225.5t25.5 -249.5q0 -187 -48 -337.5t-134 -236.5q-80 -84 -180 -112q-95 -25 -181 -33t-165 -8
q-168 0 -310.5 32.5t-240.5 118.5q-97 86 -148 258t-51 355v39.5t2 29.5l25 162q20 135 106 258q55 80 127 127t152 71.5t165 32t168 7.5z" />
    <glyph glyph-name="uni1EE3" unicode="&#x1ee3;" horiz-adv-x="1269" 
d="M465 657q-10 -51 -10 -122q0 -66 10 -123.5t33.5 -99.5t62.5 -64.5t94 -18.5q51 0 101 19q61 26 84.5 70t31.5 94q6 24 9.5 39.5t4.5 28t2 24.5t1 31q0 92 -19.5 159.5t-56.5 96.5q-35 30 -72 39.5t-73 9.5q-86 0 -142.5 -47.5t-60.5 -135.5zM848 -119v-162h-352v162h352
zM651 1108q64 0 135.5 -4t138 -18.5t125 -44t99.5 -80.5l6 -11q18 4 26.5 22.5t12.5 43t4 52.5v50l135 -51q0 -47 -10 -95t-45 -77q-33 -27 -72 -31q29 -67 41 -144t12 -163q0 -174 -38.5 -289.5t-98.5 -167.5q-59 -51 -171.5 -81.5t-272.5 -30.5q-148 0 -262.5 26.5
t-188.5 91.5q-69 68 -104 201q-33 129 -33 275q0 36 2 62t4 67q21 127 74 211q39 59 97.5 96t124 56.5t133 26.5t126.5 7z" />
    <glyph glyph-name="uni1EE4" unicode="&#x1ee4;" horiz-adv-x="1427" 
d="M124 1468h350v-772v-67q0 -117 24.5 -187.5t80.5 -103.5q57 -31 98 -39t84 -8q102 0 178 45q78 47 100.5 133t22.5 225v774h350v-841q0 -256 -65 -377q-66 -119 -158 -172q-94 -53 -199.5 -71.5t-234.5 -18.5q-66 0 -122 4t-109.5 14t-106.5 30.5t-109 53.5
q-112 68 -149 201q-35 135 -35 364v813zM944 -119v-162h-352v162h352z" />
    <glyph glyph-name="uni1EE5" unicode="&#x1ee5;" horiz-adv-x="1181" 
d="M122 1108h350v-565v-58q0 -82 12 -125q15 -43 52 -63q39 -18 266 -18v829h348v-1108h-348v199l-133 -199h-76q-162 0 -251 15.5t-140 62.5t-65.5 116.5t-14.5 161.5v52v700zM847 -119v-162h-352v162h352z" />
    <glyph glyph-name="uni1EE6" unicode="&#x1ee6;" horiz-adv-x="1427" 
d="M124 1468h350v-772v-67q0 -117 24.5 -187.5t80.5 -103.5q57 -31 98 -39t84 -8q102 0 178 45q78 47 100.5 133t22.5 225v774h350v-841q0 -256 -65 -377q-66 -119 -158 -172q-94 -53 -199.5 -71.5t-234.5 -18.5q-66 0 -122 4t-109.5 14t-106.5 30.5t-109 53.5
q-112 68 -149 201q-35 135 -35 364v813zM723 1702h116q35 0 54.5 9t19.5 30q0 28 -22.5 38.5t-81.5 10.5h-88l-37 113h178q66 0 96.5 -10.5t53.5 -55.5q22 -37 22 -96q0 -51 -23.5 -92t-56.5 -52q-26 -8 -96 -8h-37l-18 -47h-119z" />
    <glyph glyph-name="uni1EE7" unicode="&#x1ee7;" horiz-adv-x="1181" 
d="M122 1108h350v-565v-58q0 -82 12 -125q15 -43 52 -63q39 -18 266 -18v829h348v-1108h-348v199l-133 -199h-76q-162 0 -251 15.5t-140 62.5t-65.5 116.5t-14.5 161.5v52v700zM600 1358h117q34 0 53.5 9.5t19.5 29.5q0 29 -22.5 39t-81.5 10h-88l-37 113h178
q66 0 96.5 -10.5t53.5 -55.5q22 -36 22 -96q0 -51 -23.5 -92t-56.5 -51q-26 -8 -96 -8h-37l-18 -48h-119z" />
    <glyph glyph-name="uni1EE8" unicode="&#x1ee8;" horiz-adv-x="1427" 
d="M1044 1796l-192 -221h-142l113 227h221v-6zM1412 1313q23 0 34 16.5t15 42t4 55v54.5l136 -51q0 -48 -10.5 -96t-45.5 -77q-30 -24 -59 -28t-74 -4v-598q0 -256 -65 -377q-66 -119 -158 -172q-94 -53 -199.5 -71.5t-234.5 -18.5q-66 0 -122 4t-109.5 14t-106.5 30.5
t-109 53.5q-112 68 -149 201q-35 135 -35 364v813h350v-839q0 -117 24.5 -187.5t80.5 -103.5q57 -31 98 -39t84 -8q102 0 178 45q78 47 100.5 133t22.5 225v774h350v-155z" />
    <glyph glyph-name="uni1EE9" unicode="&#x1ee9;" horiz-adv-x="1181" 
d="M890 1419l-192 -221h-142l113 228h221v-7zM1150 950q23 0 34 16.5t15 42t4 55.5v54l136 -51q0 -47 -10.5 -95t-45.5 -77q-31 -25 -59.5 -29t-73.5 -4v-862h-348v199l-133 -199h-76q-162 0 -251 15.5t-140 62.5t-65.5 116.5t-14.5 161.5v752h350v-623q0 -82 12 -125
q15 -43 52 -63q39 -18 266 -18v829h348v-158z" />
    <glyph glyph-name="uni1EEA" unicode="&#x1eea;" horiz-adv-x="1427" 
d="M534 1802h221l113 -227h-141l-193 221v6zM1412 1313q23 0 34 16.5t15 42t4 55v54.5l136 -51q0 -48 -10.5 -96t-45.5 -77q-30 -24 -59 -28t-74 -4v-598q0 -256 -65 -377q-66 -119 -158 -172q-94 -53 -199.5 -71.5t-234.5 -18.5q-66 0 -122 4t-109.5 14t-106.5 30.5
t-109 53.5q-112 68 -149 201q-35 135 -35 364v813h350v-839q0 -117 24.5 -187.5t80.5 -103.5q57 -31 98 -39t84 -8q102 0 178 45q78 47 100.5 133t22.5 225v774h350v-155z" />
    <glyph glyph-name="uni1EEB" unicode="&#x1eeb;" horiz-adv-x="1181" 
d="M440 1426h221l113 -228h-141l-193 221v7zM1150 950q23 0 34 16.5t15 42t4 55.5v54l136 -51q0 -47 -10.5 -95t-45.5 -77q-31 -25 -59.5 -29t-73.5 -4v-862h-348v199l-133 -199h-76q-162 0 -251 15.5t-140 62.5t-65.5 116.5t-14.5 161.5v752h350v-623q0 -82 12 -125
q15 -43 52 -63q39 -18 266 -18v829h348v-158z" />
    <glyph glyph-name="uni1EEC" unicode="&#x1eec;" horiz-adv-x="1427" 
d="M723 1702h116q35 0 54.5 9t19.5 30q0 28 -22.5 38.5t-81.5 10.5h-88l-37 113h178q66 0 96.5 -10.5t53.5 -55.5q22 -37 22 -96q0 -51 -23.5 -92t-56.5 -52q-26 -8 -96 -8h-37l-18 -47h-119zM1412 1313q23 0 34 16.5t15 42t4 55v54.5l136 -51q0 -48 -10.5 -96t-45.5 -77
q-30 -24 -59 -28t-74 -4v-598q0 -256 -65 -377q-66 -119 -158 -172q-94 -53 -199.5 -71.5t-234.5 -18.5q-66 0 -122 4t-109.5 14t-106.5 30.5t-109 53.5q-112 68 -149 201q-35 135 -35 364v813h350v-839q0 -117 24.5 -187.5t80.5 -103.5q57 -31 98 -39t84 -8q102 0 178 45
q78 47 100.5 133t22.5 225v774h350v-155z" />
    <glyph glyph-name="uni1EED" unicode="&#x1eed;" horiz-adv-x="1181" 
d="M600 1358h117q34 0 53.5 9.5t19.5 29.5q0 29 -22.5 39t-81.5 10h-88l-37 113h178q66 0 96.5 -10.5t53.5 -55.5q22 -36 22 -96q0 -51 -23.5 -92t-56.5 -51q-26 -8 -96 -8h-37l-18 -48h-119zM1150 950q23 0 34 16.5t15 42t4 55.5v54l136 -51q0 -47 -10.5 -95t-45.5 -77
q-31 -25 -59.5 -29t-73.5 -4v-862h-348v199l-133 -199h-76q-162 0 -251 15.5t-140 62.5t-65.5 116.5t-14.5 161.5v752h350v-623q0 -82 12 -125q15 -43 52 -63q39 -18 266 -18v829h348v-158z" />
    <glyph glyph-name="uni1EEE" unicode="&#x1eee;" horiz-adv-x="1427" 
d="M1082 1761q-13 -57 -35 -106q-25 -47 -67 -70.5t-74 -23.5q-29 0 -90 24l-91 33q-28 6 -36 6q-25 0 -40.5 -12.5t-27.5 -55.5h-109q13 64 33 111q25 47 70 70.5t80 23.5q18 0 30.5 -1t25.5 -5t29.5 -10t39.5 -16l28 -11q11 -4 30 -11t36 -7q16 0 27.5 8t18.5 18.5
t11 20.5t8 14h103zM1412 1313q23 0 34 16.5t15 42t4 55v54.5l136 -51q0 -48 -10.5 -96t-45.5 -77q-30 -24 -59 -28t-74 -4v-598q0 -256 -65 -377q-66 -119 -158 -172q-94 -53 -199.5 -71.5t-234.5 -18.5q-66 0 -122 4t-109.5 14t-106.5 30.5t-109 53.5q-112 68 -149 201
q-35 135 -35 364v813h350v-839q0 -117 24.5 -187.5t80.5 -103.5q57 -31 98 -39t84 -8q102 0 178 45q78 47 100.5 133t22.5 225v774h350v-155z" />
    <glyph glyph-name="uni1EEF" unicode="&#x1eef;" horiz-adv-x="1181" 
d="M944 1425q-13 -57 -35 -106q-25 -47 -67 -70.5t-75 -23.5q-28 0 -90 24l-90 33q-29 6 -37 6q-24 0 -39.5 -12t-27.5 -55h-109q12 63 33 110q25 47 70 70.5t79 23.5q19 0 31 -1t25.5 -5t30 -10t38.5 -16l29 -11q10 -4 29.5 -11t36.5 -7q16 0 27 8t18.5 18.5t11.5 20.5
t8 14h103zM1150 950q23 0 34 16.5t15 42t4 55.5v54l136 -51q0 -47 -10.5 -95t-45.5 -77q-31 -25 -59.5 -29t-73.5 -4v-862h-348v199l-133 -199h-76q-162 0 -251 15.5t-140 62.5t-65.5 116.5t-14.5 161.5v752h350v-623q0 -82 12 -125q15 -43 52 -63q39 -18 266 -18v829h348
v-158z" />
    <glyph glyph-name="uni1EF0" unicode="&#x1ef0;" horiz-adv-x="1427" 
d="M944 -119v-162h-352v162h352zM1412 1313q23 0 34 16.5t15 42t4 55v54.5l136 -51q0 -48 -10.5 -96t-45.5 -77q-30 -24 -59 -28t-74 -4v-598q0 -256 -65 -377q-66 -119 -158 -172q-94 -53 -199.5 -71.5t-234.5 -18.5q-66 0 -122 4t-109.5 14t-106.5 30.5t-109 53.5
q-112 68 -149 201q-35 135 -35 364v813h350v-839q0 -117 24.5 -187.5t80.5 -103.5q57 -31 98 -39t84 -8q102 0 178 45q78 47 100.5 133t22.5 225v774h350v-155z" />
    <glyph glyph-name="uni1EF1" unicode="&#x1ef1;" horiz-adv-x="1181" 
d="M847 -119v-162h-352v162h352zM1150 950q23 0 34 16.5t15 42t4 55.5v54l136 -51q0 -47 -10.5 -95t-45.5 -77q-31 -25 -59.5 -29t-73.5 -4v-862h-348v199l-133 -199h-76q-162 0 -251 15.5t-140 62.5t-65.5 116.5t-14.5 161.5v752h350v-623q0 -82 12 -125q15 -43 52 -63
q39 -18 266 -18v829h348v-158z" />
    <glyph glyph-name="Ygrave" unicode="&#x1ef2;" horiz-adv-x="1413" 
d="M40 1468h401l316 -462l289 462h411l-524 -815v-653h-350v647zM533 1802h221l113 -227h-141l-193 221v6z" />
    <glyph glyph-name="ygrave" unicode="&#x1ef3;" horiz-adv-x="1171" 
d="M45 1108h385l196 -664l197 664h383l-440 -1169q-56 -136 -123.5 -225t-132.5 -105q-70 -21 -115 -23q-25 -2 -61.5 -3t-83.5 -1h-74l-166 287h123h59q60 0 103 6t71.5 23.5t43 49.5t14.5 83zM440 1426h221l113 -228h-141l-193 221v7z" />
    <glyph glyph-name="uni1EF4" unicode="&#x1ef4;" horiz-adv-x="1413" 
d="M40 1468h401l316 -462l289 462h411l-524 -815v-653h-350v647zM938 -119v-162h-352v162h352z" />
    <glyph glyph-name="uni1EF5" unicode="&#x1ef5;" horiz-adv-x="1171" 
d="M45 1108h385l196 -664l197 664h383l-440 -1169q-56 -136 -123.5 -225t-132.5 -105q-70 -21 -115 -23q-25 -2 -61.5 -3t-83.5 -1h-74l-166 287h123h59q60 0 103 6t71.5 23.5t43 49.5t14.5 83zM1146 -119v-162h-353v162h353z" />
    <glyph glyph-name="uni1EF6" unicode="&#x1ef6;" horiz-adv-x="1413" 
d="M40 1468h401l316 -462l289 462h411l-524 -815v-653h-350v647zM722 1702h117q34 0 53.5 9t19.5 30q0 28 -22.5 38.5t-81.5 10.5h-88l-37 113h178q66 0 96.5 -10.5t53.5 -55.5q22 -37 22 -96q0 -51 -23.5 -92t-56.5 -52q-26 -8 -96 -8h-37l-18 -47h-119z" />
    <glyph glyph-name="uni1EF7" unicode="&#x1ef7;" horiz-adv-x="1171" 
d="M45 1108h385l196 -664l197 664h383l-440 -1169q-56 -136 -123.5 -225t-132.5 -105q-70 -21 -115 -23q-25 -2 -61.5 -3t-83.5 -1h-74l-166 287h123h59q60 0 103 6t71.5 23.5t43 49.5t14.5 83zM600 1358h116q35 0 54.5 9.5t19.5 29.5q0 29 -22.5 39t-81.5 10h-89l-36 113
h178q65 0 96 -10.5t53 -55.5q23 -36 23 -96q0 -51 -23.5 -92t-56.5 -51q-27 -8 -96 -8h-37l-19 -48h-118z" />
    <glyph glyph-name="uni1EF8" unicode="&#x1ef8;" horiz-adv-x="1413" 
d="M40 1468h401l316 -462l289 462h411l-524 -815v-653h-350v647zM1105 1761q-13 -57 -35 -106q-25 -47 -67 -70.5t-74 -23.5q-29 0 -91 24l-90 33q-28 6 -37 6q-24 0 -39.5 -12.5t-27.5 -55.5h-109q13 64 33 111q25 47 70 70.5t80 23.5q18 0 30.5 -1t25.5 -5t29.5 -10
t38.5 -16l29 -11q10 -4 29.5 -11t36.5 -7q16 0 27.5 8t18.5 18.5t11 20.5t8 14h103z" />
    <glyph glyph-name="uni1EF9" unicode="&#x1ef9;" horiz-adv-x="1171" 
d="M45 1108h385l196 -664l197 664h383l-440 -1169q-56 -136 -123.5 -225t-132.5 -105q-70 -21 -115 -23q-25 -2 -61.5 -3t-83.5 -1h-74l-166 287h123h59q60 0 103 6t71.5 23.5t43 49.5t14.5 83zM943 1425q-12 -57 -35 -106q-24 -47 -66 -70.5t-75 -23.5q-29 0 -90 24l-90 33
q-29 6 -37 6q-25 0 -40 -12t-28 -55h-108q12 63 33 110q24 47 69 70.5t80 23.5q19 0 31 -1t25.5 -5t30 -10t38.5 -16l29 -11q10 -4 29.5 -11t35.5 -7q17 0 28 8t18.5 18.5t11.5 20.5t8 14h102z" />
    <glyph glyph-name="quoteleft" unicode="&#x2018;" horiz-adv-x="546" 
d="M141 1468h403l-235 -405h-168v405z" />
    <glyph glyph-name="quoteright" unicode="&#x2019;" horiz-adv-x="563" 
d="M500 1063h-406l236 405h170v-405z" />
    <glyph glyph-name="quotedblleft" unicode="&#x201c;" horiz-adv-x="1015" 
d="M133 1468h408l-240 -405h-168v405zM633 1468h403l-235 -405h-168v405z" />
    <glyph glyph-name="quotedblright" unicode="&#x201d;" horiz-adv-x="1034" 
d="M1001 1063h-405l235 405h170v-405zM502 1063h-406l236 405h170v-405z" />
    <glyph glyph-name="ellipsis" unicode="&#x2026;" horiz-adv-x="1784" 
d="M135 299h354v-299h-354v299zM711 299h354v-299h-354v299zM1296 299h354v-299h-354v299z" />
    <glyph glyph-name="ugrave" horiz-adv-x="582" 
 />
    <glyph glyph-name="uacute" horiz-adv-x="580" 
 />
    <glyph glyph-name="yacute" horiz-adv-x="629" 
 />
  </font>
</defs>
</svg>
